G04 #@! TF.FileFunction,Legend,Bot*
%FSLAX46Y46*%
G04 Gerber Fmt 4.6, Leading zero omitted, Abs format (unit mm)*
G04 Created by KiCad (PCBNEW 4.0.0-rc1-stable) date 2015/11/17 23:35:27*
%MOMM*%
G01*
G04 APERTURE LIST*
%ADD10C,0.150000*%
%ADD11C,0.050000*%
%ADD12C,0.127000*%
%ADD13C,0.200660*%
%ADD14C,0.099060*%
%ADD15R,0.800000X1.750000*%
%ADD16R,1.700000X1.450000*%
%ADD17R,1.450000X1.700000*%
%ADD18C,1.701140*%
%ADD19C,1.724000*%
%ADD20R,3.700120X3.700120*%
%ADD21O,2.198980X2.999080*%
%ADD22O,2.999080X2.198980*%
%ADD23C,1.700000*%
%ADD24O,1.800000X2.500000*%
%ADD25R,2.198980X1.099160*%
%ADD26R,2.198980X1.200760*%
%ADD27R,0.799440X1.200760*%
%ADD28O,2.000860X3.700120*%
%ADD29O,3.700120X2.000860*%
%ADD30R,1.700000X1.500000*%
%ADD31R,1.500000X1.700000*%
%ADD32R,1.750000X0.800000*%
%ADD33R,1.110000X1.420000*%
%ADD34C,1.998320*%
%ADD35C,3.401060*%
%ADD36R,1.500000X1.500000*%
%ADD37C,1.500000*%
%ADD38R,2.700000X2.700000*%
%ADD39O,2.700000X1.920000*%
%ADD40O,2.200000X1.700000*%
%ADD41O,5.201260X3.199740*%
%ADD42C,2.200000*%
%ADD43C,1.800000*%
%ADD44C,3.400000*%
%ADD45C,2.198980*%
%ADD46R,2.994000X1.216000*%
%ADD47R,5.788000X3.750000*%
%ADD48C,1.089000*%
G04 APERTURE END LIST*
D10*
X53365000Y-31180000D02*
X53510000Y-31180000D01*
X53365000Y-35330000D02*
X53510000Y-35330000D01*
X58515000Y-35330000D02*
X58370000Y-35330000D01*
X58515000Y-31180000D02*
X58370000Y-31180000D01*
X53365000Y-31180000D02*
X53365000Y-35330000D01*
X58515000Y-31180000D02*
X58515000Y-35330000D01*
X53510000Y-31180000D02*
X53510000Y-29780000D01*
X142435000Y-55900000D02*
X143435000Y-55900000D01*
X143435000Y-57600000D02*
X142435000Y-57600000D01*
X140530000Y-53360000D02*
X141530000Y-53360000D01*
X141530000Y-55060000D02*
X140530000Y-55060000D01*
X177010000Y-37565000D02*
X177010000Y-36565000D01*
X178710000Y-36565000D02*
X178710000Y-37565000D01*
X131908860Y-76965860D02*
X131908860Y-76264820D01*
X131908860Y-76264820D02*
X131108760Y-76264820D01*
X135711240Y-76965860D02*
X131108760Y-76965860D01*
X131108760Y-76965860D02*
X131108760Y-73364140D01*
X131108760Y-73364140D02*
X135711240Y-73364140D01*
X135711240Y-73364140D02*
X135711240Y-76965860D01*
X131908860Y-72520860D02*
X131908860Y-71819820D01*
X131908860Y-71819820D02*
X131108760Y-71819820D01*
X135711240Y-72520860D02*
X131108760Y-72520860D01*
X131108760Y-72520860D02*
X131108760Y-68919140D01*
X131108760Y-68919140D02*
X135711240Y-68919140D01*
X135711240Y-68919140D02*
X135711240Y-72520860D01*
D11*
X91690500Y-111931500D02*
X91563500Y-111931500D01*
X92008000Y-111677500D02*
X92135000Y-111677500D01*
X91817500Y-111804500D02*
X92198500Y-111868000D01*
X92198500Y-111868000D02*
X91817500Y-112122000D01*
X91817500Y-112122000D02*
X91881000Y-111868000D01*
X91881000Y-111868000D02*
X91817500Y-111804500D01*
X91690500Y-111931500D02*
X92008000Y-111677500D01*
X92452500Y-112566500D02*
X91627000Y-111550500D01*
D12*
X90547500Y-112693500D02*
X90547500Y-113353900D01*
X92452500Y-112693500D02*
X92452500Y-113353900D01*
X91500000Y-111296500D02*
X91500000Y-110636100D01*
X92998600Y-111296500D02*
X90001400Y-111296500D01*
X90001400Y-111296500D02*
X90001400Y-112693500D01*
X90001400Y-112693500D02*
X92998600Y-112693500D01*
X92998600Y-112693500D02*
X92998600Y-111296500D01*
D11*
X91309500Y-103168500D02*
X91436500Y-103168500D01*
X90992000Y-103422500D02*
X90865000Y-103422500D01*
X91182500Y-103295500D02*
X90801500Y-103232000D01*
X90801500Y-103232000D02*
X91182500Y-102978000D01*
X91182500Y-102978000D02*
X91119000Y-103232000D01*
X91119000Y-103232000D02*
X91182500Y-103295500D01*
X91309500Y-103168500D02*
X90992000Y-103422500D01*
X90547500Y-102533500D02*
X91373000Y-103549500D01*
D12*
X92452500Y-102406500D02*
X92452500Y-101746100D01*
X90547500Y-102406500D02*
X90547500Y-101746100D01*
X91500000Y-103803500D02*
X91500000Y-104463900D01*
X90001400Y-103803500D02*
X92998600Y-103803500D01*
X92998600Y-103803500D02*
X92998600Y-102406500D01*
X92998600Y-102406500D02*
X90001400Y-102406500D01*
X90001400Y-102406500D02*
X90001400Y-103803500D01*
D10*
X78765000Y-41270000D02*
X77565000Y-41270000D01*
X77565000Y-43020000D02*
X78765000Y-43020000D01*
X69945000Y-43020000D02*
X71145000Y-43020000D01*
X71145000Y-41270000D02*
X69945000Y-41270000D01*
X55545000Y-43380000D02*
X55545000Y-42180000D01*
X53795000Y-42180000D02*
X53795000Y-43380000D01*
X78765000Y-45715000D02*
X77565000Y-45715000D01*
X77565000Y-47465000D02*
X78765000Y-47465000D01*
X69945000Y-47465000D02*
X71145000Y-47465000D01*
X71145000Y-45715000D02*
X69945000Y-45715000D01*
X45745000Y-46350000D02*
X44545000Y-46350000D01*
X44545000Y-48100000D02*
X45745000Y-48100000D01*
X98725000Y-97355000D02*
X98725000Y-96155000D01*
X96975000Y-96155000D02*
X96975000Y-97355000D01*
X75660000Y-115410000D02*
X76860000Y-115410000D01*
X76860000Y-113660000D02*
X75660000Y-113660000D01*
X75660000Y-101440000D02*
X76860000Y-101440000D01*
X76860000Y-99690000D02*
X75660000Y-99690000D01*
X89630000Y-116680000D02*
X90830000Y-116680000D01*
X90830000Y-114930000D02*
X89630000Y-114930000D01*
X83915000Y-98900000D02*
X85115000Y-98900000D01*
X85115000Y-97150000D02*
X83915000Y-97150000D01*
X176555000Y-59685000D02*
X175355000Y-59685000D01*
X175355000Y-61435000D02*
X176555000Y-61435000D01*
X158210000Y-34130000D02*
X159410000Y-34130000D01*
X159410000Y-32380000D02*
X158210000Y-32380000D01*
X176555000Y-62225000D02*
X175355000Y-62225000D01*
X175355000Y-63975000D02*
X176555000Y-63975000D01*
X164560000Y-32860000D02*
X165760000Y-32860000D01*
X165760000Y-31110000D02*
X164560000Y-31110000D01*
X176555000Y-64765000D02*
X175355000Y-64765000D01*
X175355000Y-66515000D02*
X176555000Y-66515000D01*
X170910000Y-31590000D02*
X172110000Y-31590000D01*
X172110000Y-29840000D02*
X170910000Y-29840000D01*
X167305000Y-54175000D02*
X167305000Y-52975000D01*
X165555000Y-52975000D02*
X165555000Y-54175000D01*
X171115000Y-56080000D02*
X171115000Y-54880000D01*
X169365000Y-54880000D02*
X169365000Y-56080000D01*
X121105000Y-70120000D02*
X121105000Y-71320000D01*
X122855000Y-71320000D02*
X122855000Y-70120000D01*
X123645000Y-70120000D02*
X123645000Y-71320000D01*
X125395000Y-71320000D02*
X125395000Y-70120000D01*
X153060000Y-33650000D02*
X151860000Y-33650000D01*
X151860000Y-35400000D02*
X153060000Y-35400000D01*
X145510000Y-71595000D02*
X146710000Y-71595000D01*
X146710000Y-69845000D02*
X145510000Y-69845000D01*
X158210000Y-71595000D02*
X159410000Y-71595000D01*
X159410000Y-69845000D02*
X158210000Y-69845000D01*
X63730000Y-44650000D02*
X63730000Y-44795000D01*
X59580000Y-44650000D02*
X59580000Y-44795000D01*
X59580000Y-49800000D02*
X59580000Y-49655000D01*
X63730000Y-49800000D02*
X63730000Y-49655000D01*
X63730000Y-44650000D02*
X59580000Y-44650000D01*
X63730000Y-49800000D02*
X59580000Y-49800000D01*
X63730000Y-44795000D02*
X65130000Y-44795000D01*
X53082500Y-87865000D02*
X53463500Y-87865000D01*
X52066500Y-87865000D02*
X52447500Y-87865000D01*
X52447500Y-87865000D02*
X53082500Y-88246000D01*
X53082500Y-88246000D02*
X53082500Y-87484000D01*
X53082500Y-87484000D02*
X52447500Y-87865000D01*
X52447500Y-88373000D02*
X52447500Y-87357000D01*
X50765000Y-86965000D02*
X54305000Y-86965000D01*
X50765000Y-88765000D02*
X54305000Y-88765000D01*
X82927500Y-114535000D02*
X82546500Y-114535000D01*
X83943500Y-114535000D02*
X83562500Y-114535000D01*
X83562500Y-114535000D02*
X82927500Y-114154000D01*
X82927500Y-114154000D02*
X82927500Y-114916000D01*
X82927500Y-114916000D02*
X83562500Y-114535000D01*
X83562500Y-114027000D02*
X83562500Y-115043000D01*
X85245000Y-115435000D02*
X81705000Y-115435000D01*
X85245000Y-113635000D02*
X81705000Y-113635000D01*
X84197500Y-100565000D02*
X83816500Y-100565000D01*
X85213500Y-100565000D02*
X84832500Y-100565000D01*
X84832500Y-100565000D02*
X84197500Y-100184000D01*
X84197500Y-100184000D02*
X84197500Y-100946000D01*
X84197500Y-100946000D02*
X84832500Y-100565000D01*
X84832500Y-100057000D02*
X84832500Y-101073000D01*
X86515000Y-101465000D02*
X82975000Y-101465000D01*
X86515000Y-99665000D02*
X82975000Y-99665000D01*
D13*
X35999740Y-120000000D02*
G75*
G03X35999740Y-120000000I-2999740J0D01*
G01*
X184999740Y-120000000D02*
G75*
G03X184999740Y-120000000I-2999740J0D01*
G01*
X184999740Y-30000000D02*
G75*
G03X184999740Y-30000000I-2999740J0D01*
G01*
X35999740Y-30000000D02*
G75*
G03X35999740Y-30000000I-2999740J0D01*
G01*
D10*
X50010000Y-63600000D02*
X50010000Y-62600000D01*
X51710000Y-62600000D02*
X51710000Y-63600000D01*
X47470000Y-63600000D02*
X47470000Y-62600000D01*
X49170000Y-62600000D02*
X49170000Y-63600000D01*
X44930000Y-63600000D02*
X44930000Y-62600000D01*
X46630000Y-62600000D02*
X46630000Y-63600000D01*
X45745000Y-50160000D02*
X44545000Y-50160000D01*
X44545000Y-51910000D02*
X45745000Y-51910000D01*
X51582381Y-33763095D02*
X52391905Y-33763095D01*
X52487143Y-33810714D01*
X52534762Y-33858333D01*
X52582381Y-33953571D01*
X52582381Y-34144048D01*
X52534762Y-34239286D01*
X52487143Y-34286905D01*
X52391905Y-34334524D01*
X51582381Y-34334524D01*
X51582381Y-34715476D02*
X51582381Y-35334524D01*
X51963333Y-35001190D01*
X51963333Y-35144048D01*
X52010952Y-35239286D01*
X52058571Y-35286905D01*
X52153810Y-35334524D01*
X52391905Y-35334524D01*
X52487143Y-35286905D01*
X52534762Y-35239286D01*
X52582381Y-35144048D01*
X52582381Y-34858333D01*
X52534762Y-34763095D01*
X52487143Y-34715476D01*
X59368571Y-30516905D02*
X59368571Y-30183571D01*
X59892381Y-30183571D02*
X58892381Y-30183571D01*
X58892381Y-30659762D01*
X59892381Y-31040714D02*
X58892381Y-31040714D01*
X58892381Y-31278809D01*
X58940000Y-31421667D01*
X59035238Y-31516905D01*
X59130476Y-31564524D01*
X59320952Y-31612143D01*
X59463810Y-31612143D01*
X59654286Y-31564524D01*
X59749524Y-31516905D01*
X59844762Y-31421667D01*
X59892381Y-31278809D01*
X59892381Y-31040714D01*
X59844762Y-31993095D02*
X59892381Y-32135952D01*
X59892381Y-32374048D01*
X59844762Y-32469286D01*
X59797143Y-32516905D01*
X59701905Y-32564524D01*
X59606667Y-32564524D01*
X59511429Y-32516905D01*
X59463810Y-32469286D01*
X59416190Y-32374048D01*
X59368571Y-32183571D01*
X59320952Y-32088333D01*
X59273333Y-32040714D01*
X59178095Y-31993095D01*
X59082857Y-31993095D01*
X58987619Y-32040714D01*
X58940000Y-32088333D01*
X58892381Y-32183571D01*
X58892381Y-32421667D01*
X58940000Y-32564524D01*
X59225714Y-33421667D02*
X59892381Y-33421667D01*
X58844762Y-33183571D02*
X59559048Y-32945476D01*
X59559048Y-33564524D01*
X59892381Y-33993095D02*
X59892381Y-34183571D01*
X59844762Y-34278810D01*
X59797143Y-34326429D01*
X59654286Y-34421667D01*
X59463810Y-34469286D01*
X59082857Y-34469286D01*
X58987619Y-34421667D01*
X58940000Y-34374048D01*
X58892381Y-34278810D01*
X58892381Y-34088333D01*
X58940000Y-33993095D01*
X58987619Y-33945476D01*
X59082857Y-33897857D01*
X59320952Y-33897857D01*
X59416190Y-33945476D01*
X59463810Y-33993095D01*
X59511429Y-34088333D01*
X59511429Y-34278810D01*
X59463810Y-34374048D01*
X59416190Y-34421667D01*
X59320952Y-34469286D01*
X58892381Y-34802619D02*
X58892381Y-35421667D01*
X59273333Y-35088333D01*
X59273333Y-35231191D01*
X59320952Y-35326429D01*
X59368571Y-35374048D01*
X59463810Y-35421667D01*
X59701905Y-35421667D01*
X59797143Y-35374048D01*
X59844762Y-35326429D01*
X59892381Y-35231191D01*
X59892381Y-34945476D01*
X59844762Y-34850238D01*
X59797143Y-34802619D01*
X58892381Y-36326429D02*
X58892381Y-35850238D01*
X59368571Y-35802619D01*
X59320952Y-35850238D01*
X59273333Y-35945476D01*
X59273333Y-36183572D01*
X59320952Y-36278810D01*
X59368571Y-36326429D01*
X59463810Y-36374048D01*
X59701905Y-36374048D01*
X59797143Y-36326429D01*
X59844762Y-36278810D01*
X59892381Y-36183572D01*
X59892381Y-35945476D01*
X59844762Y-35850238D01*
X59797143Y-35802619D01*
X147387857Y-57107143D02*
X147435476Y-57154762D01*
X147578333Y-57202381D01*
X147673571Y-57202381D01*
X147816429Y-57154762D01*
X147911667Y-57059524D01*
X147959286Y-56964286D01*
X148006905Y-56773810D01*
X148006905Y-56630952D01*
X147959286Y-56440476D01*
X147911667Y-56345238D01*
X147816429Y-56250000D01*
X147673571Y-56202381D01*
X147578333Y-56202381D01*
X147435476Y-56250000D01*
X147387857Y-56297619D01*
X147006905Y-56297619D02*
X146959286Y-56250000D01*
X146864048Y-56202381D01*
X146625952Y-56202381D01*
X146530714Y-56250000D01*
X146483095Y-56297619D01*
X146435476Y-56392857D01*
X146435476Y-56488095D01*
X146483095Y-56630952D01*
X147054524Y-57202381D01*
X146435476Y-57202381D01*
X145578333Y-56535714D02*
X145578333Y-57202381D01*
X145816429Y-56154762D02*
X146054524Y-56869048D01*
X145435476Y-56869048D01*
X151769286Y-56202381D02*
X151674047Y-56202381D01*
X151578809Y-56250000D01*
X151531190Y-56297619D01*
X151483571Y-56392857D01*
X151435952Y-56583333D01*
X151435952Y-56821429D01*
X151483571Y-57011905D01*
X151531190Y-57107143D01*
X151578809Y-57154762D01*
X151674047Y-57202381D01*
X151769286Y-57202381D01*
X151864524Y-57154762D01*
X151912143Y-57107143D01*
X151959762Y-57011905D01*
X152007381Y-56821429D01*
X152007381Y-56583333D01*
X151959762Y-56392857D01*
X151912143Y-56297619D01*
X151864524Y-56250000D01*
X151769286Y-56202381D01*
X151007381Y-57107143D02*
X150959762Y-57154762D01*
X151007381Y-57202381D01*
X151055000Y-57154762D01*
X151007381Y-57107143D01*
X151007381Y-57202381D01*
X150007381Y-57202381D02*
X150578810Y-57202381D01*
X150293096Y-57202381D02*
X150293096Y-56202381D01*
X150388334Y-56345238D01*
X150483572Y-56440476D01*
X150578810Y-56488095D01*
X149150238Y-56535714D02*
X149150238Y-57202381D01*
X149578810Y-56535714D02*
X149578810Y-57059524D01*
X149531191Y-57154762D01*
X149435953Y-57202381D01*
X149293095Y-57202381D01*
X149197857Y-57154762D01*
X149150238Y-57107143D01*
X145482857Y-54567143D02*
X145530476Y-54614762D01*
X145673333Y-54662381D01*
X145768571Y-54662381D01*
X145911429Y-54614762D01*
X146006667Y-54519524D01*
X146054286Y-54424286D01*
X146101905Y-54233810D01*
X146101905Y-54090952D01*
X146054286Y-53900476D01*
X146006667Y-53805238D01*
X145911429Y-53710000D01*
X145768571Y-53662381D01*
X145673333Y-53662381D01*
X145530476Y-53710000D01*
X145482857Y-53757619D01*
X145101905Y-53757619D02*
X145054286Y-53710000D01*
X144959048Y-53662381D01*
X144720952Y-53662381D01*
X144625714Y-53710000D01*
X144578095Y-53757619D01*
X144530476Y-53852857D01*
X144530476Y-53948095D01*
X144578095Y-54090952D01*
X145149524Y-54662381D01*
X144530476Y-54662381D01*
X144197143Y-53662381D02*
X143578095Y-53662381D01*
X143911429Y-54043333D01*
X143768571Y-54043333D01*
X143673333Y-54090952D01*
X143625714Y-54138571D01*
X143578095Y-54233810D01*
X143578095Y-54471905D01*
X143625714Y-54567143D01*
X143673333Y-54614762D01*
X143768571Y-54662381D01*
X144054286Y-54662381D01*
X144149524Y-54614762D01*
X144197143Y-54567143D01*
X149864286Y-53662381D02*
X149769047Y-53662381D01*
X149673809Y-53710000D01*
X149626190Y-53757619D01*
X149578571Y-53852857D01*
X149530952Y-54043333D01*
X149530952Y-54281429D01*
X149578571Y-54471905D01*
X149626190Y-54567143D01*
X149673809Y-54614762D01*
X149769047Y-54662381D01*
X149864286Y-54662381D01*
X149959524Y-54614762D01*
X150007143Y-54567143D01*
X150054762Y-54471905D01*
X150102381Y-54281429D01*
X150102381Y-54043333D01*
X150054762Y-53852857D01*
X150007143Y-53757619D01*
X149959524Y-53710000D01*
X149864286Y-53662381D01*
X149102381Y-54567143D02*
X149054762Y-54614762D01*
X149102381Y-54662381D01*
X149150000Y-54614762D01*
X149102381Y-54567143D01*
X149102381Y-54662381D01*
X148102381Y-54662381D02*
X148673810Y-54662381D01*
X148388096Y-54662381D02*
X148388096Y-53662381D01*
X148483334Y-53805238D01*
X148578572Y-53900476D01*
X148673810Y-53948095D01*
X147245238Y-53995714D02*
X147245238Y-54662381D01*
X147673810Y-53995714D02*
X147673810Y-54519524D01*
X147626191Y-54614762D01*
X147530953Y-54662381D01*
X147388095Y-54662381D01*
X147292857Y-54614762D01*
X147245238Y-54567143D01*
X176312143Y-36422143D02*
X176359762Y-36374524D01*
X176407381Y-36231667D01*
X176407381Y-36136429D01*
X176359762Y-35993571D01*
X176264524Y-35898333D01*
X176169286Y-35850714D01*
X175978810Y-35803095D01*
X175835952Y-35803095D01*
X175645476Y-35850714D01*
X175550238Y-35898333D01*
X175455000Y-35993571D01*
X175407381Y-36136429D01*
X175407381Y-36231667D01*
X175455000Y-36374524D01*
X175502619Y-36422143D01*
X175502619Y-36803095D02*
X175455000Y-36850714D01*
X175407381Y-36945952D01*
X175407381Y-37184048D01*
X175455000Y-37279286D01*
X175502619Y-37326905D01*
X175597857Y-37374524D01*
X175693095Y-37374524D01*
X175835952Y-37326905D01*
X176407381Y-36755476D01*
X176407381Y-37374524D01*
X175407381Y-38279286D02*
X175407381Y-37803095D01*
X175883571Y-37755476D01*
X175835952Y-37803095D01*
X175788333Y-37898333D01*
X175788333Y-38136429D01*
X175835952Y-38231667D01*
X175883571Y-38279286D01*
X175978810Y-38326905D01*
X176216905Y-38326905D01*
X176312143Y-38279286D01*
X176359762Y-38231667D01*
X176407381Y-38136429D01*
X176407381Y-37898333D01*
X176359762Y-37803095D01*
X176312143Y-37755476D01*
X179217381Y-35850714D02*
X179217381Y-35945953D01*
X179265000Y-36041191D01*
X179312619Y-36088810D01*
X179407857Y-36136429D01*
X179598333Y-36184048D01*
X179836429Y-36184048D01*
X180026905Y-36136429D01*
X180122143Y-36088810D01*
X180169762Y-36041191D01*
X180217381Y-35945953D01*
X180217381Y-35850714D01*
X180169762Y-35755476D01*
X180122143Y-35707857D01*
X180026905Y-35660238D01*
X179836429Y-35612619D01*
X179598333Y-35612619D01*
X179407857Y-35660238D01*
X179312619Y-35707857D01*
X179265000Y-35755476D01*
X179217381Y-35850714D01*
X180122143Y-36612619D02*
X180169762Y-36660238D01*
X180217381Y-36612619D01*
X180169762Y-36565000D01*
X180122143Y-36612619D01*
X180217381Y-36612619D01*
X180217381Y-37612619D02*
X180217381Y-37041190D01*
X180217381Y-37326904D02*
X179217381Y-37326904D01*
X179360238Y-37231666D01*
X179455476Y-37136428D01*
X179503095Y-37041190D01*
X179550714Y-38469762D02*
X180217381Y-38469762D01*
X179550714Y-38041190D02*
X180074524Y-38041190D01*
X180169762Y-38088809D01*
X180217381Y-38184047D01*
X180217381Y-38326905D01*
X180169762Y-38422143D01*
X180122143Y-38469762D01*
X139212381Y-73926905D02*
X140021905Y-73926905D01*
X140117143Y-73974524D01*
X140164762Y-74022143D01*
X140212381Y-74117381D01*
X140212381Y-74307858D01*
X140164762Y-74403096D01*
X140117143Y-74450715D01*
X140021905Y-74498334D01*
X139212381Y-74498334D01*
X140212381Y-75498334D02*
X140212381Y-74926905D01*
X140212381Y-75212619D02*
X139212381Y-75212619D01*
X139355238Y-75117381D01*
X139450476Y-75022143D01*
X139498095Y-74926905D01*
X139212381Y-76403096D02*
X139212381Y-75926905D01*
X139688571Y-75879286D01*
X139640952Y-75926905D01*
X139593333Y-76022143D01*
X139593333Y-76260239D01*
X139640952Y-76355477D01*
X139688571Y-76403096D01*
X139783810Y-76450715D01*
X140021905Y-76450715D01*
X140117143Y-76403096D01*
X140164762Y-76355477D01*
X140212381Y-76260239D01*
X140212381Y-76022143D01*
X140164762Y-75926905D01*
X140117143Y-75879286D01*
X136029048Y-77157381D02*
X135457619Y-77157381D01*
X135743334Y-78157381D02*
X135743334Y-77157381D01*
X134648095Y-78157381D02*
X135124286Y-78157381D01*
X135124286Y-77157381D01*
X134314762Y-78157381D02*
X134314762Y-77157381D01*
X133933809Y-77157381D01*
X133838571Y-77205000D01*
X133790952Y-77252619D01*
X133743333Y-77347857D01*
X133743333Y-77490714D01*
X133790952Y-77585952D01*
X133838571Y-77633571D01*
X133933809Y-77681190D01*
X134314762Y-77681190D01*
X132790952Y-78157381D02*
X133362381Y-78157381D01*
X133076667Y-78157381D02*
X133076667Y-77157381D01*
X133171905Y-77300238D01*
X133267143Y-77395476D01*
X133362381Y-77443095D01*
X132410000Y-77252619D02*
X132362381Y-77205000D01*
X132267143Y-77157381D01*
X132029047Y-77157381D01*
X131933809Y-77205000D01*
X131886190Y-77252619D01*
X131838571Y-77347857D01*
X131838571Y-77443095D01*
X131886190Y-77585952D01*
X132457619Y-78157381D01*
X131838571Y-78157381D01*
X130886190Y-78157381D02*
X131457619Y-78157381D01*
X131171905Y-78157381D02*
X131171905Y-77157381D01*
X131267143Y-77300238D01*
X131362381Y-77395476D01*
X131457619Y-77443095D01*
X139212381Y-69481905D02*
X140021905Y-69481905D01*
X140117143Y-69529524D01*
X140164762Y-69577143D01*
X140212381Y-69672381D01*
X140212381Y-69862858D01*
X140164762Y-69958096D01*
X140117143Y-70005715D01*
X140021905Y-70053334D01*
X139212381Y-70053334D01*
X140212381Y-71053334D02*
X140212381Y-70481905D01*
X140212381Y-70767619D02*
X139212381Y-70767619D01*
X139355238Y-70672381D01*
X139450476Y-70577143D01*
X139498095Y-70481905D01*
X139212381Y-71910477D02*
X139212381Y-71720000D01*
X139260000Y-71624762D01*
X139307619Y-71577143D01*
X139450476Y-71481905D01*
X139640952Y-71434286D01*
X140021905Y-71434286D01*
X140117143Y-71481905D01*
X140164762Y-71529524D01*
X140212381Y-71624762D01*
X140212381Y-71815239D01*
X140164762Y-71910477D01*
X140117143Y-71958096D01*
X140021905Y-72005715D01*
X139783810Y-72005715D01*
X139688571Y-71958096D01*
X139640952Y-71910477D01*
X139593333Y-71815239D01*
X139593333Y-71624762D01*
X139640952Y-71529524D01*
X139688571Y-71481905D01*
X139783810Y-71434286D01*
X136029048Y-67632381D02*
X135457619Y-67632381D01*
X135743334Y-68632381D02*
X135743334Y-67632381D01*
X134648095Y-68632381D02*
X135124286Y-68632381D01*
X135124286Y-67632381D01*
X134314762Y-68632381D02*
X134314762Y-67632381D01*
X133933809Y-67632381D01*
X133838571Y-67680000D01*
X133790952Y-67727619D01*
X133743333Y-67822857D01*
X133743333Y-67965714D01*
X133790952Y-68060952D01*
X133838571Y-68108571D01*
X133933809Y-68156190D01*
X134314762Y-68156190D01*
X132790952Y-68632381D02*
X133362381Y-68632381D01*
X133076667Y-68632381D02*
X133076667Y-67632381D01*
X133171905Y-67775238D01*
X133267143Y-67870476D01*
X133362381Y-67918095D01*
X132410000Y-67727619D02*
X132362381Y-67680000D01*
X132267143Y-67632381D01*
X132029047Y-67632381D01*
X131933809Y-67680000D01*
X131886190Y-67727619D01*
X131838571Y-67822857D01*
X131838571Y-67918095D01*
X131886190Y-68060952D01*
X132457619Y-68632381D01*
X131838571Y-68632381D01*
X130886190Y-68632381D02*
X131457619Y-68632381D01*
X131171905Y-68632381D02*
X131171905Y-67632381D01*
X131267143Y-67775238D01*
X131362381Y-67870476D01*
X131457619Y-67918095D01*
D14*
X93901328Y-112221362D02*
X93901328Y-111720982D01*
X93782190Y-111720982D01*
X93710707Y-111744810D01*
X93663052Y-111792465D01*
X93639224Y-111840120D01*
X93615396Y-111935431D01*
X93615396Y-112006914D01*
X93639224Y-112102224D01*
X93663052Y-112149880D01*
X93710707Y-112197535D01*
X93782190Y-112221362D01*
X93901328Y-112221362D01*
X93424776Y-111768638D02*
X93400948Y-111744810D01*
X93353293Y-111720982D01*
X93234155Y-111720982D01*
X93186499Y-111744810D01*
X93162672Y-111768638D01*
X93138844Y-111816293D01*
X93138844Y-111863948D01*
X93162672Y-111935431D01*
X93448603Y-112221362D01*
X93138844Y-112221362D01*
X89837328Y-103331362D02*
X89837328Y-102830982D01*
X89718190Y-102830982D01*
X89646707Y-102854810D01*
X89599052Y-102902465D01*
X89575224Y-102950120D01*
X89551396Y-103045431D01*
X89551396Y-103116914D01*
X89575224Y-103212224D01*
X89599052Y-103259880D01*
X89646707Y-103307535D01*
X89718190Y-103331362D01*
X89837328Y-103331362D01*
X89384603Y-102830982D02*
X89074844Y-102830982D01*
X89241637Y-103021603D01*
X89170155Y-103021603D01*
X89122499Y-103045431D01*
X89098672Y-103069259D01*
X89074844Y-103116914D01*
X89074844Y-103236052D01*
X89098672Y-103283707D01*
X89122499Y-103307535D01*
X89170155Y-103331362D01*
X89313120Y-103331362D01*
X89360776Y-103307535D01*
X89384603Y-103283707D01*
D10*
X78331666Y-40692381D02*
X78665000Y-40216190D01*
X78903095Y-40692381D02*
X78903095Y-39692381D01*
X78522142Y-39692381D01*
X78426904Y-39740000D01*
X78379285Y-39787619D01*
X78331666Y-39882857D01*
X78331666Y-40025714D01*
X78379285Y-40120952D01*
X78426904Y-40168571D01*
X78522142Y-40216190D01*
X78903095Y-40216190D01*
X77379285Y-40692381D02*
X77950714Y-40692381D01*
X77665000Y-40692381D02*
X77665000Y-39692381D01*
X77760238Y-39835238D01*
X77855476Y-39930476D01*
X77950714Y-39978095D01*
X80895476Y-40692381D02*
X81466905Y-40692381D01*
X81181191Y-40692381D02*
X81181191Y-39692381D01*
X81276429Y-39835238D01*
X81371667Y-39930476D01*
X81466905Y-39978095D01*
X80276429Y-39692381D02*
X80181190Y-39692381D01*
X80085952Y-39740000D01*
X80038333Y-39787619D01*
X79990714Y-39882857D01*
X79943095Y-40073333D01*
X79943095Y-40311429D01*
X79990714Y-40501905D01*
X80038333Y-40597143D01*
X80085952Y-40644762D01*
X80181190Y-40692381D01*
X80276429Y-40692381D01*
X80371667Y-40644762D01*
X80419286Y-40597143D01*
X80466905Y-40501905D01*
X80514524Y-40311429D01*
X80514524Y-40073333D01*
X80466905Y-39882857D01*
X80419286Y-39787619D01*
X80371667Y-39740000D01*
X80276429Y-39692381D01*
X70711666Y-40692381D02*
X71045000Y-40216190D01*
X71283095Y-40692381D02*
X71283095Y-39692381D01*
X70902142Y-39692381D01*
X70806904Y-39740000D01*
X70759285Y-39787619D01*
X70711666Y-39882857D01*
X70711666Y-40025714D01*
X70759285Y-40120952D01*
X70806904Y-40168571D01*
X70902142Y-40216190D01*
X71283095Y-40216190D01*
X70330714Y-39787619D02*
X70283095Y-39740000D01*
X70187857Y-39692381D01*
X69949761Y-39692381D01*
X69854523Y-39740000D01*
X69806904Y-39787619D01*
X69759285Y-39882857D01*
X69759285Y-39978095D01*
X69806904Y-40120952D01*
X70378333Y-40692381D01*
X69759285Y-40692381D01*
X74315238Y-40692381D02*
X74886667Y-40692381D01*
X74600953Y-40692381D02*
X74600953Y-39692381D01*
X74696191Y-39835238D01*
X74791429Y-39930476D01*
X74886667Y-39978095D01*
X73696191Y-39692381D02*
X73600952Y-39692381D01*
X73505714Y-39740000D01*
X73458095Y-39787619D01*
X73410476Y-39882857D01*
X73362857Y-40073333D01*
X73362857Y-40311429D01*
X73410476Y-40501905D01*
X73458095Y-40597143D01*
X73505714Y-40644762D01*
X73600952Y-40692381D01*
X73696191Y-40692381D01*
X73791429Y-40644762D01*
X73839048Y-40597143D01*
X73886667Y-40501905D01*
X73934286Y-40311429D01*
X73934286Y-40073333D01*
X73886667Y-39882857D01*
X73839048Y-39787619D01*
X73791429Y-39740000D01*
X73696191Y-39692381D01*
X72934286Y-40692381D02*
X72934286Y-39692381D01*
X72839048Y-40311429D02*
X72553333Y-40692381D01*
X72553333Y-40025714D02*
X72934286Y-40406667D01*
X53022381Y-42613334D02*
X52546190Y-42280000D01*
X53022381Y-42041905D02*
X52022381Y-42041905D01*
X52022381Y-42422858D01*
X52070000Y-42518096D01*
X52117619Y-42565715D01*
X52212857Y-42613334D01*
X52355714Y-42613334D01*
X52450952Y-42565715D01*
X52498571Y-42518096D01*
X52546190Y-42422858D01*
X52546190Y-42041905D01*
X52022381Y-42946667D02*
X52022381Y-43565715D01*
X52403333Y-43232381D01*
X52403333Y-43375239D01*
X52450952Y-43470477D01*
X52498571Y-43518096D01*
X52593810Y-43565715D01*
X52831905Y-43565715D01*
X52927143Y-43518096D01*
X52974762Y-43470477D01*
X53022381Y-43375239D01*
X53022381Y-43089524D01*
X52974762Y-42994286D01*
X52927143Y-42946667D01*
X56222381Y-41565714D02*
X56222381Y-42184762D01*
X56603333Y-41851428D01*
X56603333Y-41994286D01*
X56650952Y-42089524D01*
X56698571Y-42137143D01*
X56793810Y-42184762D01*
X57031905Y-42184762D01*
X57127143Y-42137143D01*
X57174762Y-42089524D01*
X57222381Y-41994286D01*
X57222381Y-41708571D01*
X57174762Y-41613333D01*
X57127143Y-41565714D01*
X56222381Y-42518095D02*
X56222381Y-43137143D01*
X56603333Y-42803809D01*
X56603333Y-42946667D01*
X56650952Y-43041905D01*
X56698571Y-43089524D01*
X56793810Y-43137143D01*
X57031905Y-43137143D01*
X57127143Y-43089524D01*
X57174762Y-43041905D01*
X57222381Y-42946667D01*
X57222381Y-42660952D01*
X57174762Y-42565714D01*
X57127143Y-42518095D01*
X57222381Y-43565714D02*
X56222381Y-43565714D01*
X56841429Y-43660952D02*
X57222381Y-43946667D01*
X56555714Y-43946667D02*
X56936667Y-43565714D01*
X78331666Y-45137381D02*
X78665000Y-44661190D01*
X78903095Y-45137381D02*
X78903095Y-44137381D01*
X78522142Y-44137381D01*
X78426904Y-44185000D01*
X78379285Y-44232619D01*
X78331666Y-44327857D01*
X78331666Y-44470714D01*
X78379285Y-44565952D01*
X78426904Y-44613571D01*
X78522142Y-44661190D01*
X78903095Y-44661190D01*
X77426904Y-44137381D02*
X77903095Y-44137381D01*
X77950714Y-44613571D01*
X77903095Y-44565952D01*
X77807857Y-44518333D01*
X77569761Y-44518333D01*
X77474523Y-44565952D01*
X77426904Y-44613571D01*
X77379285Y-44708810D01*
X77379285Y-44946905D01*
X77426904Y-45042143D01*
X77474523Y-45089762D01*
X77569761Y-45137381D01*
X77807857Y-45137381D01*
X77903095Y-45089762D01*
X77950714Y-45042143D01*
X80895476Y-45137381D02*
X81466905Y-45137381D01*
X81181191Y-45137381D02*
X81181191Y-44137381D01*
X81276429Y-44280238D01*
X81371667Y-44375476D01*
X81466905Y-44423095D01*
X80276429Y-44137381D02*
X80181190Y-44137381D01*
X80085952Y-44185000D01*
X80038333Y-44232619D01*
X79990714Y-44327857D01*
X79943095Y-44518333D01*
X79943095Y-44756429D01*
X79990714Y-44946905D01*
X80038333Y-45042143D01*
X80085952Y-45089762D01*
X80181190Y-45137381D01*
X80276429Y-45137381D01*
X80371667Y-45089762D01*
X80419286Y-45042143D01*
X80466905Y-44946905D01*
X80514524Y-44756429D01*
X80514524Y-44518333D01*
X80466905Y-44327857D01*
X80419286Y-44232619D01*
X80371667Y-44185000D01*
X80276429Y-44137381D01*
X70711666Y-45137381D02*
X71045000Y-44661190D01*
X71283095Y-45137381D02*
X71283095Y-44137381D01*
X70902142Y-44137381D01*
X70806904Y-44185000D01*
X70759285Y-44232619D01*
X70711666Y-44327857D01*
X70711666Y-44470714D01*
X70759285Y-44565952D01*
X70806904Y-44613571D01*
X70902142Y-44661190D01*
X71283095Y-44661190D01*
X69854523Y-44137381D02*
X70045000Y-44137381D01*
X70140238Y-44185000D01*
X70187857Y-44232619D01*
X70283095Y-44375476D01*
X70330714Y-44565952D01*
X70330714Y-44946905D01*
X70283095Y-45042143D01*
X70235476Y-45089762D01*
X70140238Y-45137381D01*
X69949761Y-45137381D01*
X69854523Y-45089762D01*
X69806904Y-45042143D01*
X69759285Y-44946905D01*
X69759285Y-44708810D01*
X69806904Y-44613571D01*
X69854523Y-44565952D01*
X69949761Y-44518333D01*
X70140238Y-44518333D01*
X70235476Y-44565952D01*
X70283095Y-44613571D01*
X70330714Y-44708810D01*
X74315238Y-45137381D02*
X74886667Y-45137381D01*
X74600953Y-45137381D02*
X74600953Y-44137381D01*
X74696191Y-44280238D01*
X74791429Y-44375476D01*
X74886667Y-44423095D01*
X73696191Y-44137381D02*
X73600952Y-44137381D01*
X73505714Y-44185000D01*
X73458095Y-44232619D01*
X73410476Y-44327857D01*
X73362857Y-44518333D01*
X73362857Y-44756429D01*
X73410476Y-44946905D01*
X73458095Y-45042143D01*
X73505714Y-45089762D01*
X73600952Y-45137381D01*
X73696191Y-45137381D01*
X73791429Y-45089762D01*
X73839048Y-45042143D01*
X73886667Y-44946905D01*
X73934286Y-44756429D01*
X73934286Y-44518333D01*
X73886667Y-44327857D01*
X73839048Y-44232619D01*
X73791429Y-44185000D01*
X73696191Y-44137381D01*
X72934286Y-45137381D02*
X72934286Y-44137381D01*
X72839048Y-44756429D02*
X72553333Y-45137381D01*
X72553333Y-44470714D02*
X72934286Y-44851667D01*
X40866666Y-47677381D02*
X41200000Y-47201190D01*
X41438095Y-47677381D02*
X41438095Y-46677381D01*
X41057142Y-46677381D01*
X40961904Y-46725000D01*
X40914285Y-46772619D01*
X40866666Y-46867857D01*
X40866666Y-47010714D01*
X40914285Y-47105952D01*
X40961904Y-47153571D01*
X41057142Y-47201190D01*
X41438095Y-47201190D01*
X40533333Y-46677381D02*
X39866666Y-46677381D01*
X40295238Y-47677381D01*
X46359286Y-44772381D02*
X45740238Y-44772381D01*
X46073572Y-45153333D01*
X45930714Y-45153333D01*
X45835476Y-45200952D01*
X45787857Y-45248571D01*
X45740238Y-45343810D01*
X45740238Y-45581905D01*
X45787857Y-45677143D01*
X45835476Y-45724762D01*
X45930714Y-45772381D01*
X46216429Y-45772381D01*
X46311667Y-45724762D01*
X46359286Y-45677143D01*
X45406905Y-44772381D02*
X44787857Y-44772381D01*
X45121191Y-45153333D01*
X44978333Y-45153333D01*
X44883095Y-45200952D01*
X44835476Y-45248571D01*
X44787857Y-45343810D01*
X44787857Y-45581905D01*
X44835476Y-45677143D01*
X44883095Y-45724762D01*
X44978333Y-45772381D01*
X45264048Y-45772381D01*
X45359286Y-45724762D01*
X45406905Y-45677143D01*
X44359286Y-45772381D02*
X44359286Y-44772381D01*
X44264048Y-45391429D02*
X43978333Y-45772381D01*
X43978333Y-45105714D02*
X44359286Y-45486667D01*
X96397381Y-96112143D02*
X95921190Y-95778809D01*
X96397381Y-95540714D02*
X95397381Y-95540714D01*
X95397381Y-95921667D01*
X95445000Y-96016905D01*
X95492619Y-96064524D01*
X95587857Y-96112143D01*
X95730714Y-96112143D01*
X95825952Y-96064524D01*
X95873571Y-96016905D01*
X95921190Y-95921667D01*
X95921190Y-95540714D01*
X96397381Y-97064524D02*
X96397381Y-96493095D01*
X96397381Y-96778809D02*
X95397381Y-96778809D01*
X95540238Y-96683571D01*
X95635476Y-96588333D01*
X95683095Y-96493095D01*
X95825952Y-97635952D02*
X95778333Y-97540714D01*
X95730714Y-97493095D01*
X95635476Y-97445476D01*
X95587857Y-97445476D01*
X95492619Y-97493095D01*
X95445000Y-97540714D01*
X95397381Y-97635952D01*
X95397381Y-97826429D01*
X95445000Y-97921667D01*
X95492619Y-97969286D01*
X95587857Y-98016905D01*
X95635476Y-98016905D01*
X95730714Y-97969286D01*
X95778333Y-97921667D01*
X95825952Y-97826429D01*
X95825952Y-97635952D01*
X95873571Y-97540714D01*
X95921190Y-97493095D01*
X96016429Y-97445476D01*
X96206905Y-97445476D01*
X96302143Y-97493095D01*
X96349762Y-97540714D01*
X96397381Y-97635952D01*
X96397381Y-97826429D01*
X96349762Y-97921667D01*
X96302143Y-97969286D01*
X96206905Y-98016905D01*
X96016429Y-98016905D01*
X95921190Y-97969286D01*
X95873571Y-97921667D01*
X95825952Y-97826429D01*
X100207381Y-95683572D02*
X100207381Y-95112143D01*
X100207381Y-95397857D02*
X99207381Y-95397857D01*
X99350238Y-95302619D01*
X99445476Y-95207381D01*
X99493095Y-95112143D01*
X99207381Y-96302619D02*
X99207381Y-96397858D01*
X99255000Y-96493096D01*
X99302619Y-96540715D01*
X99397857Y-96588334D01*
X99588333Y-96635953D01*
X99826429Y-96635953D01*
X100016905Y-96588334D01*
X100112143Y-96540715D01*
X100159762Y-96493096D01*
X100207381Y-96397858D01*
X100207381Y-96302619D01*
X100159762Y-96207381D01*
X100112143Y-96159762D01*
X100016905Y-96112143D01*
X99826429Y-96064524D01*
X99588333Y-96064524D01*
X99397857Y-96112143D01*
X99302619Y-96159762D01*
X99255000Y-96207381D01*
X99207381Y-96302619D01*
X99207381Y-97255000D02*
X99207381Y-97350239D01*
X99255000Y-97445477D01*
X99302619Y-97493096D01*
X99397857Y-97540715D01*
X99588333Y-97588334D01*
X99826429Y-97588334D01*
X100016905Y-97540715D01*
X100112143Y-97493096D01*
X100159762Y-97445477D01*
X100207381Y-97350239D01*
X100207381Y-97255000D01*
X100159762Y-97159762D01*
X100112143Y-97112143D01*
X100016905Y-97064524D01*
X99826429Y-97016905D01*
X99588333Y-97016905D01*
X99397857Y-97064524D01*
X99302619Y-97112143D01*
X99255000Y-97159762D01*
X99207381Y-97255000D01*
X100207381Y-98016905D02*
X99207381Y-98016905D01*
X99826429Y-98112143D02*
X100207381Y-98397858D01*
X99540714Y-98397858D02*
X99921667Y-98016905D01*
X72457857Y-114987381D02*
X72791191Y-114511190D01*
X73029286Y-114987381D02*
X73029286Y-113987381D01*
X72648333Y-113987381D01*
X72553095Y-114035000D01*
X72505476Y-114082619D01*
X72457857Y-114177857D01*
X72457857Y-114320714D01*
X72505476Y-114415952D01*
X72553095Y-114463571D01*
X72648333Y-114511190D01*
X73029286Y-114511190D01*
X72076905Y-114082619D02*
X72029286Y-114035000D01*
X71934048Y-113987381D01*
X71695952Y-113987381D01*
X71600714Y-114035000D01*
X71553095Y-114082619D01*
X71505476Y-114177857D01*
X71505476Y-114273095D01*
X71553095Y-114415952D01*
X72124524Y-114987381D01*
X71505476Y-114987381D01*
X70648333Y-114320714D02*
X70648333Y-114987381D01*
X70886429Y-113939762D02*
X71124524Y-114654048D01*
X70505476Y-114654048D01*
X72410238Y-116892381D02*
X72981667Y-116892381D01*
X72695953Y-116892381D02*
X72695953Y-115892381D01*
X72791191Y-116035238D01*
X72886429Y-116130476D01*
X72981667Y-116178095D01*
X71791191Y-115892381D02*
X71695952Y-115892381D01*
X71600714Y-115940000D01*
X71553095Y-115987619D01*
X71505476Y-116082857D01*
X71457857Y-116273333D01*
X71457857Y-116511429D01*
X71505476Y-116701905D01*
X71553095Y-116797143D01*
X71600714Y-116844762D01*
X71695952Y-116892381D01*
X71791191Y-116892381D01*
X71886429Y-116844762D01*
X71934048Y-116797143D01*
X71981667Y-116701905D01*
X72029286Y-116511429D01*
X72029286Y-116273333D01*
X71981667Y-116082857D01*
X71934048Y-115987619D01*
X71886429Y-115940000D01*
X71791191Y-115892381D01*
X71029286Y-116892381D02*
X71029286Y-115892381D01*
X70934048Y-116511429D02*
X70648333Y-116892381D01*
X70648333Y-116225714D02*
X71029286Y-116606667D01*
X76902857Y-99112381D02*
X77236191Y-98636190D01*
X77474286Y-99112381D02*
X77474286Y-98112381D01*
X77093333Y-98112381D01*
X76998095Y-98160000D01*
X76950476Y-98207619D01*
X76902857Y-98302857D01*
X76902857Y-98445714D01*
X76950476Y-98540952D01*
X76998095Y-98588571D01*
X77093333Y-98636190D01*
X77474286Y-98636190D01*
X76521905Y-98207619D02*
X76474286Y-98160000D01*
X76379048Y-98112381D01*
X76140952Y-98112381D01*
X76045714Y-98160000D01*
X75998095Y-98207619D01*
X75950476Y-98302857D01*
X75950476Y-98398095D01*
X75998095Y-98540952D01*
X76569524Y-99112381D01*
X75950476Y-99112381D01*
X75045714Y-98112381D02*
X75521905Y-98112381D01*
X75569524Y-98588571D01*
X75521905Y-98540952D01*
X75426667Y-98493333D01*
X75188571Y-98493333D01*
X75093333Y-98540952D01*
X75045714Y-98588571D01*
X74998095Y-98683810D01*
X74998095Y-98921905D01*
X75045714Y-99017143D01*
X75093333Y-99064762D01*
X75188571Y-99112381D01*
X75426667Y-99112381D01*
X75521905Y-99064762D01*
X75569524Y-99017143D01*
X72410238Y-101017381D02*
X72981667Y-101017381D01*
X72695953Y-101017381D02*
X72695953Y-100017381D01*
X72791191Y-100160238D01*
X72886429Y-100255476D01*
X72981667Y-100303095D01*
X71791191Y-100017381D02*
X71695952Y-100017381D01*
X71600714Y-100065000D01*
X71553095Y-100112619D01*
X71505476Y-100207857D01*
X71457857Y-100398333D01*
X71457857Y-100636429D01*
X71505476Y-100826905D01*
X71553095Y-100922143D01*
X71600714Y-100969762D01*
X71695952Y-101017381D01*
X71791191Y-101017381D01*
X71886429Y-100969762D01*
X71934048Y-100922143D01*
X71981667Y-100826905D01*
X72029286Y-100636429D01*
X72029286Y-100398333D01*
X71981667Y-100207857D01*
X71934048Y-100112619D01*
X71886429Y-100065000D01*
X71791191Y-100017381D01*
X71029286Y-101017381D02*
X71029286Y-100017381D01*
X70934048Y-100636429D02*
X70648333Y-101017381D01*
X70648333Y-100350714D02*
X71029286Y-100731667D01*
X90872857Y-118162381D02*
X91206191Y-117686190D01*
X91444286Y-118162381D02*
X91444286Y-117162381D01*
X91063333Y-117162381D01*
X90968095Y-117210000D01*
X90920476Y-117257619D01*
X90872857Y-117352857D01*
X90872857Y-117495714D01*
X90920476Y-117590952D01*
X90968095Y-117638571D01*
X91063333Y-117686190D01*
X91444286Y-117686190D01*
X90491905Y-117257619D02*
X90444286Y-117210000D01*
X90349048Y-117162381D01*
X90110952Y-117162381D01*
X90015714Y-117210000D01*
X89968095Y-117257619D01*
X89920476Y-117352857D01*
X89920476Y-117448095D01*
X89968095Y-117590952D01*
X90539524Y-118162381D01*
X89920476Y-118162381D01*
X89063333Y-117162381D02*
X89253810Y-117162381D01*
X89349048Y-117210000D01*
X89396667Y-117257619D01*
X89491905Y-117400476D01*
X89539524Y-117590952D01*
X89539524Y-117971905D01*
X89491905Y-118067143D01*
X89444286Y-118114762D01*
X89349048Y-118162381D01*
X89158571Y-118162381D01*
X89063333Y-118114762D01*
X89015714Y-118067143D01*
X88968095Y-117971905D01*
X88968095Y-117733810D01*
X89015714Y-117638571D01*
X89063333Y-117590952D01*
X89158571Y-117543333D01*
X89349048Y-117543333D01*
X89444286Y-117590952D01*
X89491905Y-117638571D01*
X89539524Y-117733810D01*
X90825238Y-120067381D02*
X91396667Y-120067381D01*
X91110953Y-120067381D02*
X91110953Y-119067381D01*
X91206191Y-119210238D01*
X91301429Y-119305476D01*
X91396667Y-119353095D01*
X90206191Y-119067381D02*
X90110952Y-119067381D01*
X90015714Y-119115000D01*
X89968095Y-119162619D01*
X89920476Y-119257857D01*
X89872857Y-119448333D01*
X89872857Y-119686429D01*
X89920476Y-119876905D01*
X89968095Y-119972143D01*
X90015714Y-120019762D01*
X90110952Y-120067381D01*
X90206191Y-120067381D01*
X90301429Y-120019762D01*
X90349048Y-119972143D01*
X90396667Y-119876905D01*
X90444286Y-119686429D01*
X90444286Y-119448333D01*
X90396667Y-119257857D01*
X90349048Y-119162619D01*
X90301429Y-119115000D01*
X90206191Y-119067381D01*
X89444286Y-120067381D02*
X89444286Y-119067381D01*
X89349048Y-119686429D02*
X89063333Y-120067381D01*
X89063333Y-119400714D02*
X89444286Y-119781667D01*
X85157857Y-96572381D02*
X85491191Y-96096190D01*
X85729286Y-96572381D02*
X85729286Y-95572381D01*
X85348333Y-95572381D01*
X85253095Y-95620000D01*
X85205476Y-95667619D01*
X85157857Y-95762857D01*
X85157857Y-95905714D01*
X85205476Y-96000952D01*
X85253095Y-96048571D01*
X85348333Y-96096190D01*
X85729286Y-96096190D01*
X84776905Y-95667619D02*
X84729286Y-95620000D01*
X84634048Y-95572381D01*
X84395952Y-95572381D01*
X84300714Y-95620000D01*
X84253095Y-95667619D01*
X84205476Y-95762857D01*
X84205476Y-95858095D01*
X84253095Y-96000952D01*
X84824524Y-96572381D01*
X84205476Y-96572381D01*
X83872143Y-95572381D02*
X83205476Y-95572381D01*
X83634048Y-96572381D01*
X85110238Y-94667381D02*
X85681667Y-94667381D01*
X85395953Y-94667381D02*
X85395953Y-93667381D01*
X85491191Y-93810238D01*
X85586429Y-93905476D01*
X85681667Y-93953095D01*
X84491191Y-93667381D02*
X84395952Y-93667381D01*
X84300714Y-93715000D01*
X84253095Y-93762619D01*
X84205476Y-93857857D01*
X84157857Y-94048333D01*
X84157857Y-94286429D01*
X84205476Y-94476905D01*
X84253095Y-94572143D01*
X84300714Y-94619762D01*
X84395952Y-94667381D01*
X84491191Y-94667381D01*
X84586429Y-94619762D01*
X84634048Y-94572143D01*
X84681667Y-94476905D01*
X84729286Y-94286429D01*
X84729286Y-94048333D01*
X84681667Y-93857857D01*
X84634048Y-93762619D01*
X84586429Y-93715000D01*
X84491191Y-93667381D01*
X83729286Y-94667381D02*
X83729286Y-93667381D01*
X83634048Y-94286429D02*
X83348333Y-94667381D01*
X83348333Y-94000714D02*
X83729286Y-94381667D01*
X181042857Y-61012381D02*
X181376191Y-60536190D01*
X181614286Y-61012381D02*
X181614286Y-60012381D01*
X181233333Y-60012381D01*
X181138095Y-60060000D01*
X181090476Y-60107619D01*
X181042857Y-60202857D01*
X181042857Y-60345714D01*
X181090476Y-60440952D01*
X181138095Y-60488571D01*
X181233333Y-60536190D01*
X181614286Y-60536190D01*
X180661905Y-60107619D02*
X180614286Y-60060000D01*
X180519048Y-60012381D01*
X180280952Y-60012381D01*
X180185714Y-60060000D01*
X180138095Y-60107619D01*
X180090476Y-60202857D01*
X180090476Y-60298095D01*
X180138095Y-60440952D01*
X180709524Y-61012381D01*
X180090476Y-61012381D01*
X179519048Y-60440952D02*
X179614286Y-60393333D01*
X179661905Y-60345714D01*
X179709524Y-60250476D01*
X179709524Y-60202857D01*
X179661905Y-60107619D01*
X179614286Y-60060000D01*
X179519048Y-60012381D01*
X179328571Y-60012381D01*
X179233333Y-60060000D01*
X179185714Y-60107619D01*
X179138095Y-60202857D01*
X179138095Y-60250476D01*
X179185714Y-60345714D01*
X179233333Y-60393333D01*
X179328571Y-60440952D01*
X179519048Y-60440952D01*
X179614286Y-60488571D01*
X179661905Y-60536190D01*
X179709524Y-60631429D01*
X179709524Y-60821905D01*
X179661905Y-60917143D01*
X179614286Y-60964762D01*
X179519048Y-61012381D01*
X179328571Y-61012381D01*
X179233333Y-60964762D01*
X179185714Y-60917143D01*
X179138095Y-60821905D01*
X179138095Y-60631429D01*
X179185714Y-60536190D01*
X179233333Y-60488571D01*
X179328571Y-60440952D01*
X172264047Y-61012381D02*
X172835476Y-61012381D01*
X172549762Y-61012381D02*
X172549762Y-60012381D01*
X172645000Y-60155238D01*
X172740238Y-60250476D01*
X172835476Y-60298095D01*
X171835476Y-61012381D02*
X171835476Y-60012381D01*
X171740238Y-60631429D02*
X171454523Y-61012381D01*
X171454523Y-60345714D02*
X171835476Y-60726667D01*
X159452857Y-31607381D02*
X159786191Y-31131190D01*
X160024286Y-31607381D02*
X160024286Y-30607381D01*
X159643333Y-30607381D01*
X159548095Y-30655000D01*
X159500476Y-30702619D01*
X159452857Y-30797857D01*
X159452857Y-30940714D01*
X159500476Y-31035952D01*
X159548095Y-31083571D01*
X159643333Y-31131190D01*
X160024286Y-31131190D01*
X159119524Y-30607381D02*
X158500476Y-30607381D01*
X158833810Y-30988333D01*
X158690952Y-30988333D01*
X158595714Y-31035952D01*
X158548095Y-31083571D01*
X158500476Y-31178810D01*
X158500476Y-31416905D01*
X158548095Y-31512143D01*
X158595714Y-31559762D01*
X158690952Y-31607381D01*
X158976667Y-31607381D01*
X159071905Y-31559762D01*
X159119524Y-31512143D01*
X157881429Y-30607381D02*
X157786190Y-30607381D01*
X157690952Y-30655000D01*
X157643333Y-30702619D01*
X157595714Y-30797857D01*
X157548095Y-30988333D01*
X157548095Y-31226429D01*
X157595714Y-31416905D01*
X157643333Y-31512143D01*
X157690952Y-31559762D01*
X157786190Y-31607381D01*
X157881429Y-31607381D01*
X157976667Y-31559762D01*
X158024286Y-31512143D01*
X158071905Y-31416905D01*
X158119524Y-31226429D01*
X158119524Y-30988333D01*
X158071905Y-30797857D01*
X158024286Y-30702619D01*
X157976667Y-30655000D01*
X157881429Y-30607381D01*
X159000476Y-35612381D02*
X159571905Y-35612381D01*
X159286191Y-35612381D02*
X159286191Y-34612381D01*
X159381429Y-34755238D01*
X159476667Y-34850476D01*
X159571905Y-34898095D01*
X158381429Y-34612381D02*
X158286190Y-34612381D01*
X158190952Y-34660000D01*
X158143333Y-34707619D01*
X158095714Y-34802857D01*
X158048095Y-34993333D01*
X158048095Y-35231429D01*
X158095714Y-35421905D01*
X158143333Y-35517143D01*
X158190952Y-35564762D01*
X158286190Y-35612381D01*
X158381429Y-35612381D01*
X158476667Y-35564762D01*
X158524286Y-35517143D01*
X158571905Y-35421905D01*
X158619524Y-35231429D01*
X158619524Y-34993333D01*
X158571905Y-34802857D01*
X158524286Y-34707619D01*
X158476667Y-34660000D01*
X158381429Y-34612381D01*
X181042857Y-63552381D02*
X181376191Y-63076190D01*
X181614286Y-63552381D02*
X181614286Y-62552381D01*
X181233333Y-62552381D01*
X181138095Y-62600000D01*
X181090476Y-62647619D01*
X181042857Y-62742857D01*
X181042857Y-62885714D01*
X181090476Y-62980952D01*
X181138095Y-63028571D01*
X181233333Y-63076190D01*
X181614286Y-63076190D01*
X180709524Y-62552381D02*
X180090476Y-62552381D01*
X180423810Y-62933333D01*
X180280952Y-62933333D01*
X180185714Y-62980952D01*
X180138095Y-63028571D01*
X180090476Y-63123810D01*
X180090476Y-63361905D01*
X180138095Y-63457143D01*
X180185714Y-63504762D01*
X180280952Y-63552381D01*
X180566667Y-63552381D01*
X180661905Y-63504762D01*
X180709524Y-63457143D01*
X179138095Y-63552381D02*
X179709524Y-63552381D01*
X179423810Y-63552381D02*
X179423810Y-62552381D01*
X179519048Y-62695238D01*
X179614286Y-62790476D01*
X179709524Y-62838095D01*
X172264047Y-63552381D02*
X172835476Y-63552381D01*
X172549762Y-63552381D02*
X172549762Y-62552381D01*
X172645000Y-62695238D01*
X172740238Y-62790476D01*
X172835476Y-62838095D01*
X171835476Y-63552381D02*
X171835476Y-62552381D01*
X171740238Y-63171429D02*
X171454523Y-63552381D01*
X171454523Y-62885714D02*
X171835476Y-63266667D01*
X165802857Y-30337381D02*
X166136191Y-29861190D01*
X166374286Y-30337381D02*
X166374286Y-29337381D01*
X165993333Y-29337381D01*
X165898095Y-29385000D01*
X165850476Y-29432619D01*
X165802857Y-29527857D01*
X165802857Y-29670714D01*
X165850476Y-29765952D01*
X165898095Y-29813571D01*
X165993333Y-29861190D01*
X166374286Y-29861190D01*
X165469524Y-29337381D02*
X164850476Y-29337381D01*
X165183810Y-29718333D01*
X165040952Y-29718333D01*
X164945714Y-29765952D01*
X164898095Y-29813571D01*
X164850476Y-29908810D01*
X164850476Y-30146905D01*
X164898095Y-30242143D01*
X164945714Y-30289762D01*
X165040952Y-30337381D01*
X165326667Y-30337381D01*
X165421905Y-30289762D01*
X165469524Y-30242143D01*
X164517143Y-29337381D02*
X163898095Y-29337381D01*
X164231429Y-29718333D01*
X164088571Y-29718333D01*
X163993333Y-29765952D01*
X163945714Y-29813571D01*
X163898095Y-29908810D01*
X163898095Y-30146905D01*
X163945714Y-30242143D01*
X163993333Y-30289762D01*
X164088571Y-30337381D01*
X164374286Y-30337381D01*
X164469524Y-30289762D01*
X164517143Y-30242143D01*
X164080476Y-34342381D02*
X164651905Y-34342381D01*
X164366191Y-34342381D02*
X164366191Y-33342381D01*
X164461429Y-33485238D01*
X164556667Y-33580476D01*
X164651905Y-33628095D01*
X163461429Y-33342381D02*
X163366190Y-33342381D01*
X163270952Y-33390000D01*
X163223333Y-33437619D01*
X163175714Y-33532857D01*
X163128095Y-33723333D01*
X163128095Y-33961429D01*
X163175714Y-34151905D01*
X163223333Y-34247143D01*
X163270952Y-34294762D01*
X163366190Y-34342381D01*
X163461429Y-34342381D01*
X163556667Y-34294762D01*
X163604286Y-34247143D01*
X163651905Y-34151905D01*
X163699524Y-33961429D01*
X163699524Y-33723333D01*
X163651905Y-33532857D01*
X163604286Y-33437619D01*
X163556667Y-33390000D01*
X163461429Y-33342381D01*
X181042857Y-66092381D02*
X181376191Y-65616190D01*
X181614286Y-66092381D02*
X181614286Y-65092381D01*
X181233333Y-65092381D01*
X181138095Y-65140000D01*
X181090476Y-65187619D01*
X181042857Y-65282857D01*
X181042857Y-65425714D01*
X181090476Y-65520952D01*
X181138095Y-65568571D01*
X181233333Y-65616190D01*
X181614286Y-65616190D01*
X180709524Y-65092381D02*
X180090476Y-65092381D01*
X180423810Y-65473333D01*
X180280952Y-65473333D01*
X180185714Y-65520952D01*
X180138095Y-65568571D01*
X180090476Y-65663810D01*
X180090476Y-65901905D01*
X180138095Y-65997143D01*
X180185714Y-66044762D01*
X180280952Y-66092381D01*
X180566667Y-66092381D01*
X180661905Y-66044762D01*
X180709524Y-65997143D01*
X179233333Y-65425714D02*
X179233333Y-66092381D01*
X179471429Y-65044762D02*
X179709524Y-65759048D01*
X179090476Y-65759048D01*
X172343333Y-66092381D02*
X172914762Y-66092381D01*
X172629048Y-66092381D02*
X172629048Y-65092381D01*
X172724286Y-65235238D01*
X172819524Y-65330476D01*
X172914762Y-65378095D01*
X171914762Y-65997143D02*
X171867143Y-66044762D01*
X171914762Y-66092381D01*
X171962381Y-66044762D01*
X171914762Y-65997143D01*
X171914762Y-66092381D01*
X171486191Y-65187619D02*
X171438572Y-65140000D01*
X171343334Y-65092381D01*
X171105238Y-65092381D01*
X171010000Y-65140000D01*
X170962381Y-65187619D01*
X170914762Y-65282857D01*
X170914762Y-65378095D01*
X170962381Y-65520952D01*
X171533810Y-66092381D01*
X170914762Y-66092381D01*
X170486191Y-66092381D02*
X170486191Y-65092381D01*
X170390953Y-65711429D02*
X170105238Y-66092381D01*
X170105238Y-65425714D02*
X170486191Y-65806667D01*
X172152857Y-29067381D02*
X172486191Y-28591190D01*
X172724286Y-29067381D02*
X172724286Y-28067381D01*
X172343333Y-28067381D01*
X172248095Y-28115000D01*
X172200476Y-28162619D01*
X172152857Y-28257857D01*
X172152857Y-28400714D01*
X172200476Y-28495952D01*
X172248095Y-28543571D01*
X172343333Y-28591190D01*
X172724286Y-28591190D01*
X171819524Y-28067381D02*
X171200476Y-28067381D01*
X171533810Y-28448333D01*
X171390952Y-28448333D01*
X171295714Y-28495952D01*
X171248095Y-28543571D01*
X171200476Y-28638810D01*
X171200476Y-28876905D01*
X171248095Y-28972143D01*
X171295714Y-29019762D01*
X171390952Y-29067381D01*
X171676667Y-29067381D01*
X171771905Y-29019762D01*
X171819524Y-28972143D01*
X170343333Y-28067381D02*
X170533810Y-28067381D01*
X170629048Y-28115000D01*
X170676667Y-28162619D01*
X170771905Y-28305476D01*
X170819524Y-28495952D01*
X170819524Y-28876905D01*
X170771905Y-28972143D01*
X170724286Y-29019762D01*
X170629048Y-29067381D01*
X170438571Y-29067381D01*
X170343333Y-29019762D01*
X170295714Y-28972143D01*
X170248095Y-28876905D01*
X170248095Y-28638810D01*
X170295714Y-28543571D01*
X170343333Y-28495952D01*
X170438571Y-28448333D01*
X170629048Y-28448333D01*
X170724286Y-28495952D01*
X170771905Y-28543571D01*
X170819524Y-28638810D01*
X170430476Y-33072381D02*
X171001905Y-33072381D01*
X170716191Y-33072381D02*
X170716191Y-32072381D01*
X170811429Y-32215238D01*
X170906667Y-32310476D01*
X171001905Y-32358095D01*
X169811429Y-32072381D02*
X169716190Y-32072381D01*
X169620952Y-32120000D01*
X169573333Y-32167619D01*
X169525714Y-32262857D01*
X169478095Y-32453333D01*
X169478095Y-32691429D01*
X169525714Y-32881905D01*
X169573333Y-32977143D01*
X169620952Y-33024762D01*
X169716190Y-33072381D01*
X169811429Y-33072381D01*
X169906667Y-33024762D01*
X169954286Y-32977143D01*
X170001905Y-32881905D01*
X170049524Y-32691429D01*
X170049524Y-32453333D01*
X170001905Y-32262857D01*
X169954286Y-32167619D01*
X169906667Y-32120000D01*
X169811429Y-32072381D01*
X164977381Y-53567143D02*
X164501190Y-53233809D01*
X164977381Y-52995714D02*
X163977381Y-52995714D01*
X163977381Y-53376667D01*
X164025000Y-53471905D01*
X164072619Y-53519524D01*
X164167857Y-53567143D01*
X164310714Y-53567143D01*
X164405952Y-53519524D01*
X164453571Y-53471905D01*
X164501190Y-53376667D01*
X164501190Y-52995714D01*
X163977381Y-53900476D02*
X163977381Y-54519524D01*
X164358333Y-54186190D01*
X164358333Y-54329048D01*
X164405952Y-54424286D01*
X164453571Y-54471905D01*
X164548810Y-54519524D01*
X164786905Y-54519524D01*
X164882143Y-54471905D01*
X164929762Y-54424286D01*
X164977381Y-54329048D01*
X164977381Y-54043333D01*
X164929762Y-53948095D01*
X164882143Y-53900476D01*
X164405952Y-55090952D02*
X164358333Y-54995714D01*
X164310714Y-54948095D01*
X164215476Y-54900476D01*
X164167857Y-54900476D01*
X164072619Y-54948095D01*
X164025000Y-54995714D01*
X163977381Y-55090952D01*
X163977381Y-55281429D01*
X164025000Y-55376667D01*
X164072619Y-55424286D01*
X164167857Y-55471905D01*
X164215476Y-55471905D01*
X164310714Y-55424286D01*
X164358333Y-55376667D01*
X164405952Y-55281429D01*
X164405952Y-55090952D01*
X164453571Y-54995714D01*
X164501190Y-54948095D01*
X164596429Y-54900476D01*
X164786905Y-54900476D01*
X164882143Y-54948095D01*
X164929762Y-54995714D01*
X164977381Y-55090952D01*
X164977381Y-55281429D01*
X164929762Y-55376667D01*
X164882143Y-55424286D01*
X164786905Y-55471905D01*
X164596429Y-55471905D01*
X164501190Y-55424286D01*
X164453571Y-55376667D01*
X164405952Y-55281429D01*
X166215714Y-48201429D02*
X166882381Y-48201429D01*
X165834762Y-47963333D02*
X166549048Y-47725238D01*
X166549048Y-48344286D01*
X166787143Y-48725238D02*
X166834762Y-48772857D01*
X166882381Y-48725238D01*
X166834762Y-48677619D01*
X166787143Y-48725238D01*
X166882381Y-48725238D01*
X165882381Y-49106190D02*
X165882381Y-49772857D01*
X166882381Y-49344285D01*
X166882381Y-50153809D02*
X165882381Y-50153809D01*
X166501429Y-50249047D02*
X166882381Y-50534762D01*
X166215714Y-50534762D02*
X166596667Y-50153809D01*
X168787381Y-54837143D02*
X168311190Y-54503809D01*
X168787381Y-54265714D02*
X167787381Y-54265714D01*
X167787381Y-54646667D01*
X167835000Y-54741905D01*
X167882619Y-54789524D01*
X167977857Y-54837143D01*
X168120714Y-54837143D01*
X168215952Y-54789524D01*
X168263571Y-54741905D01*
X168311190Y-54646667D01*
X168311190Y-54265714D01*
X167787381Y-55170476D02*
X167787381Y-55789524D01*
X168168333Y-55456190D01*
X168168333Y-55599048D01*
X168215952Y-55694286D01*
X168263571Y-55741905D01*
X168358810Y-55789524D01*
X168596905Y-55789524D01*
X168692143Y-55741905D01*
X168739762Y-55694286D01*
X168787381Y-55599048D01*
X168787381Y-55313333D01*
X168739762Y-55218095D01*
X168692143Y-55170476D01*
X168787381Y-56265714D02*
X168787381Y-56456190D01*
X168739762Y-56551429D01*
X168692143Y-56599048D01*
X168549286Y-56694286D01*
X168358810Y-56741905D01*
X167977857Y-56741905D01*
X167882619Y-56694286D01*
X167835000Y-56646667D01*
X167787381Y-56551429D01*
X167787381Y-56360952D01*
X167835000Y-56265714D01*
X167882619Y-56218095D01*
X167977857Y-56170476D01*
X168215952Y-56170476D01*
X168311190Y-56218095D01*
X168358810Y-56265714D01*
X168406429Y-56360952D01*
X168406429Y-56551429D01*
X168358810Y-56646667D01*
X168311190Y-56694286D01*
X168215952Y-56741905D01*
X170025714Y-50106429D02*
X170692381Y-50106429D01*
X169644762Y-49868333D02*
X170359048Y-49630238D01*
X170359048Y-50249286D01*
X170597143Y-50630238D02*
X170644762Y-50677857D01*
X170692381Y-50630238D01*
X170644762Y-50582619D01*
X170597143Y-50630238D01*
X170692381Y-50630238D01*
X169692381Y-51011190D02*
X169692381Y-51677857D01*
X170692381Y-51249285D01*
X170692381Y-52058809D02*
X169692381Y-52058809D01*
X170311429Y-52154047D02*
X170692381Y-52439762D01*
X170025714Y-52439762D02*
X170406667Y-52058809D01*
X120527381Y-70077143D02*
X120051190Y-69743809D01*
X120527381Y-69505714D02*
X119527381Y-69505714D01*
X119527381Y-69886667D01*
X119575000Y-69981905D01*
X119622619Y-70029524D01*
X119717857Y-70077143D01*
X119860714Y-70077143D01*
X119955952Y-70029524D01*
X120003571Y-69981905D01*
X120051190Y-69886667D01*
X120051190Y-69505714D01*
X119860714Y-70934286D02*
X120527381Y-70934286D01*
X119479762Y-70696190D02*
X120194048Y-70458095D01*
X120194048Y-71077143D01*
X119527381Y-71648571D02*
X119527381Y-71743810D01*
X119575000Y-71839048D01*
X119622619Y-71886667D01*
X119717857Y-71934286D01*
X119908333Y-71981905D01*
X120146429Y-71981905D01*
X120336905Y-71934286D01*
X120432143Y-71886667D01*
X120479762Y-71839048D01*
X120527381Y-71743810D01*
X120527381Y-71648571D01*
X120479762Y-71553333D01*
X120432143Y-71505714D01*
X120336905Y-71458095D01*
X120146429Y-71410476D01*
X119908333Y-71410476D01*
X119717857Y-71458095D01*
X119622619Y-71505714D01*
X119575000Y-71553333D01*
X119527381Y-71648571D01*
X121432381Y-73879286D02*
X121432381Y-74498334D01*
X121813333Y-74165000D01*
X121813333Y-74307858D01*
X121860952Y-74403096D01*
X121908571Y-74450715D01*
X122003810Y-74498334D01*
X122241905Y-74498334D01*
X122337143Y-74450715D01*
X122384762Y-74403096D01*
X122432381Y-74307858D01*
X122432381Y-74022143D01*
X122384762Y-73926905D01*
X122337143Y-73879286D01*
X121432381Y-74831667D02*
X121432381Y-75450715D01*
X121813333Y-75117381D01*
X121813333Y-75260239D01*
X121860952Y-75355477D01*
X121908571Y-75403096D01*
X122003810Y-75450715D01*
X122241905Y-75450715D01*
X122337143Y-75403096D01*
X122384762Y-75355477D01*
X122432381Y-75260239D01*
X122432381Y-74974524D01*
X122384762Y-74879286D01*
X122337143Y-74831667D01*
X121432381Y-76069762D02*
X121432381Y-76165001D01*
X121480000Y-76260239D01*
X121527619Y-76307858D01*
X121622857Y-76355477D01*
X121813333Y-76403096D01*
X122051429Y-76403096D01*
X122241905Y-76355477D01*
X122337143Y-76307858D01*
X122384762Y-76260239D01*
X122432381Y-76165001D01*
X122432381Y-76069762D01*
X122384762Y-75974524D01*
X122337143Y-75926905D01*
X122241905Y-75879286D01*
X122051429Y-75831667D01*
X121813333Y-75831667D01*
X121622857Y-75879286D01*
X121527619Y-75926905D01*
X121480000Y-75974524D01*
X121432381Y-76069762D01*
X126877381Y-70077143D02*
X126401190Y-69743809D01*
X126877381Y-69505714D02*
X125877381Y-69505714D01*
X125877381Y-69886667D01*
X125925000Y-69981905D01*
X125972619Y-70029524D01*
X126067857Y-70077143D01*
X126210714Y-70077143D01*
X126305952Y-70029524D01*
X126353571Y-69981905D01*
X126401190Y-69886667D01*
X126401190Y-69505714D01*
X126210714Y-70934286D02*
X126877381Y-70934286D01*
X125829762Y-70696190D02*
X126544048Y-70458095D01*
X126544048Y-71077143D01*
X126877381Y-71981905D02*
X126877381Y-71410476D01*
X126877381Y-71696190D02*
X125877381Y-71696190D01*
X126020238Y-71600952D01*
X126115476Y-71505714D01*
X126163095Y-71410476D01*
X123972381Y-73879286D02*
X123972381Y-74498334D01*
X124353333Y-74165000D01*
X124353333Y-74307858D01*
X124400952Y-74403096D01*
X124448571Y-74450715D01*
X124543810Y-74498334D01*
X124781905Y-74498334D01*
X124877143Y-74450715D01*
X124924762Y-74403096D01*
X124972381Y-74307858D01*
X124972381Y-74022143D01*
X124924762Y-73926905D01*
X124877143Y-73879286D01*
X123972381Y-74831667D02*
X123972381Y-75450715D01*
X124353333Y-75117381D01*
X124353333Y-75260239D01*
X124400952Y-75355477D01*
X124448571Y-75403096D01*
X124543810Y-75450715D01*
X124781905Y-75450715D01*
X124877143Y-75403096D01*
X124924762Y-75355477D01*
X124972381Y-75260239D01*
X124972381Y-74974524D01*
X124924762Y-74879286D01*
X124877143Y-74831667D01*
X123972381Y-76069762D02*
X123972381Y-76165001D01*
X124020000Y-76260239D01*
X124067619Y-76307858D01*
X124162857Y-76355477D01*
X124353333Y-76403096D01*
X124591429Y-76403096D01*
X124781905Y-76355477D01*
X124877143Y-76307858D01*
X124924762Y-76260239D01*
X124972381Y-76165001D01*
X124972381Y-76069762D01*
X124924762Y-75974524D01*
X124877143Y-75926905D01*
X124781905Y-75879286D01*
X124591429Y-75831667D01*
X124353333Y-75831667D01*
X124162857Y-75879286D01*
X124067619Y-75926905D01*
X124020000Y-75974524D01*
X123972381Y-76069762D01*
X153102857Y-33072381D02*
X153436191Y-32596190D01*
X153674286Y-33072381D02*
X153674286Y-32072381D01*
X153293333Y-32072381D01*
X153198095Y-32120000D01*
X153150476Y-32167619D01*
X153102857Y-32262857D01*
X153102857Y-32405714D01*
X153150476Y-32500952D01*
X153198095Y-32548571D01*
X153293333Y-32596190D01*
X153674286Y-32596190D01*
X152245714Y-32405714D02*
X152245714Y-33072381D01*
X152483810Y-32024762D02*
X152721905Y-32739048D01*
X152102857Y-32739048D01*
X151769524Y-32167619D02*
X151721905Y-32120000D01*
X151626667Y-32072381D01*
X151388571Y-32072381D01*
X151293333Y-32120000D01*
X151245714Y-32167619D01*
X151198095Y-32262857D01*
X151198095Y-32358095D01*
X151245714Y-32500952D01*
X151817143Y-33072381D01*
X151198095Y-33072381D01*
X152650476Y-36882381D02*
X153221905Y-36882381D01*
X152936191Y-36882381D02*
X152936191Y-35882381D01*
X153031429Y-36025238D01*
X153126667Y-36120476D01*
X153221905Y-36168095D01*
X152031429Y-35882381D02*
X151936190Y-35882381D01*
X151840952Y-35930000D01*
X151793333Y-35977619D01*
X151745714Y-36072857D01*
X151698095Y-36263333D01*
X151698095Y-36501429D01*
X151745714Y-36691905D01*
X151793333Y-36787143D01*
X151840952Y-36834762D01*
X151936190Y-36882381D01*
X152031429Y-36882381D01*
X152126667Y-36834762D01*
X152174286Y-36787143D01*
X152221905Y-36691905D01*
X152269524Y-36501429D01*
X152269524Y-36263333D01*
X152221905Y-36072857D01*
X152174286Y-35977619D01*
X152126667Y-35930000D01*
X152031429Y-35882381D01*
X146752857Y-69267381D02*
X147086191Y-68791190D01*
X147324286Y-69267381D02*
X147324286Y-68267381D01*
X146943333Y-68267381D01*
X146848095Y-68315000D01*
X146800476Y-68362619D01*
X146752857Y-68457857D01*
X146752857Y-68600714D01*
X146800476Y-68695952D01*
X146848095Y-68743571D01*
X146943333Y-68791190D01*
X147324286Y-68791190D01*
X145895714Y-68600714D02*
X145895714Y-69267381D01*
X146133810Y-68219762D02*
X146371905Y-68934048D01*
X145752857Y-68934048D01*
X144943333Y-68600714D02*
X144943333Y-69267381D01*
X145181429Y-68219762D02*
X145419524Y-68934048D01*
X144800476Y-68934048D01*
X142895238Y-69267381D02*
X143466667Y-69267381D01*
X143180953Y-69267381D02*
X143180953Y-68267381D01*
X143276191Y-68410238D01*
X143371429Y-68505476D01*
X143466667Y-68553095D01*
X142276191Y-68267381D02*
X142180952Y-68267381D01*
X142085714Y-68315000D01*
X142038095Y-68362619D01*
X141990476Y-68457857D01*
X141942857Y-68648333D01*
X141942857Y-68886429D01*
X141990476Y-69076905D01*
X142038095Y-69172143D01*
X142085714Y-69219762D01*
X142180952Y-69267381D01*
X142276191Y-69267381D01*
X142371429Y-69219762D01*
X142419048Y-69172143D01*
X142466667Y-69076905D01*
X142514286Y-68886429D01*
X142514286Y-68648333D01*
X142466667Y-68457857D01*
X142419048Y-68362619D01*
X142371429Y-68315000D01*
X142276191Y-68267381D01*
X141514286Y-69267381D02*
X141514286Y-68267381D01*
X141419048Y-68886429D02*
X141133333Y-69267381D01*
X141133333Y-68600714D02*
X141514286Y-68981667D01*
X159452857Y-69267381D02*
X159786191Y-68791190D01*
X160024286Y-69267381D02*
X160024286Y-68267381D01*
X159643333Y-68267381D01*
X159548095Y-68315000D01*
X159500476Y-68362619D01*
X159452857Y-68457857D01*
X159452857Y-68600714D01*
X159500476Y-68695952D01*
X159548095Y-68743571D01*
X159643333Y-68791190D01*
X160024286Y-68791190D01*
X158595714Y-68600714D02*
X158595714Y-69267381D01*
X158833810Y-68219762D02*
X159071905Y-68934048D01*
X158452857Y-68934048D01*
X157595714Y-68267381D02*
X158071905Y-68267381D01*
X158119524Y-68743571D01*
X158071905Y-68695952D01*
X157976667Y-68648333D01*
X157738571Y-68648333D01*
X157643333Y-68695952D01*
X157595714Y-68743571D01*
X157548095Y-68838810D01*
X157548095Y-69076905D01*
X157595714Y-69172143D01*
X157643333Y-69219762D01*
X157738571Y-69267381D01*
X157976667Y-69267381D01*
X158071905Y-69219762D01*
X158119524Y-69172143D01*
X155595238Y-69267381D02*
X156166667Y-69267381D01*
X155880953Y-69267381D02*
X155880953Y-68267381D01*
X155976191Y-68410238D01*
X156071429Y-68505476D01*
X156166667Y-68553095D01*
X154976191Y-68267381D02*
X154880952Y-68267381D01*
X154785714Y-68315000D01*
X154738095Y-68362619D01*
X154690476Y-68457857D01*
X154642857Y-68648333D01*
X154642857Y-68886429D01*
X154690476Y-69076905D01*
X154738095Y-69172143D01*
X154785714Y-69219762D01*
X154880952Y-69267381D01*
X154976191Y-69267381D01*
X155071429Y-69219762D01*
X155119048Y-69172143D01*
X155166667Y-69076905D01*
X155214286Y-68886429D01*
X155214286Y-68648333D01*
X155166667Y-68457857D01*
X155119048Y-68362619D01*
X155071429Y-68315000D01*
X154976191Y-68267381D01*
X154214286Y-69267381D02*
X154214286Y-68267381D01*
X154119048Y-68886429D02*
X153833333Y-69267381D01*
X153833333Y-68600714D02*
X154214286Y-68981667D01*
X61146905Y-50487381D02*
X61146905Y-51296905D01*
X61099286Y-51392143D01*
X61051667Y-51439762D01*
X60956429Y-51487381D01*
X60765952Y-51487381D01*
X60670714Y-51439762D01*
X60623095Y-51392143D01*
X60575476Y-51296905D01*
X60575476Y-50487381D01*
X60146905Y-50582619D02*
X60099286Y-50535000D01*
X60004048Y-50487381D01*
X59765952Y-50487381D01*
X59670714Y-50535000D01*
X59623095Y-50582619D01*
X59575476Y-50677857D01*
X59575476Y-50773095D01*
X59623095Y-50915952D01*
X60194524Y-51487381D01*
X59575476Y-51487381D01*
X64821667Y-43867381D02*
X64821667Y-42867381D01*
X64250238Y-43867381D01*
X64250238Y-42867381D01*
X63774048Y-43867381D02*
X63774048Y-42867381D01*
X63535953Y-42867381D01*
X63393095Y-42915000D01*
X63297857Y-43010238D01*
X63250238Y-43105476D01*
X63202619Y-43295952D01*
X63202619Y-43438810D01*
X63250238Y-43629286D01*
X63297857Y-43724524D01*
X63393095Y-43819762D01*
X63535953Y-43867381D01*
X63774048Y-43867381D01*
X62821667Y-43819762D02*
X62678810Y-43867381D01*
X62440714Y-43867381D01*
X62345476Y-43819762D01*
X62297857Y-43772143D01*
X62250238Y-43676905D01*
X62250238Y-43581667D01*
X62297857Y-43486429D01*
X62345476Y-43438810D01*
X62440714Y-43391190D01*
X62631191Y-43343571D01*
X62726429Y-43295952D01*
X62774048Y-43248333D01*
X62821667Y-43153095D01*
X62821667Y-43057857D01*
X62774048Y-42962619D01*
X62726429Y-42915000D01*
X62631191Y-42867381D01*
X62393095Y-42867381D01*
X62250238Y-42915000D01*
X61774048Y-43867381D02*
X61583572Y-43867381D01*
X61488333Y-43819762D01*
X61440714Y-43772143D01*
X61345476Y-43629286D01*
X61297857Y-43438810D01*
X61297857Y-43057857D01*
X61345476Y-42962619D01*
X61393095Y-42915000D01*
X61488333Y-42867381D01*
X61678810Y-42867381D01*
X61774048Y-42915000D01*
X61821667Y-42962619D01*
X61869286Y-43057857D01*
X61869286Y-43295952D01*
X61821667Y-43391190D01*
X61774048Y-43438810D01*
X61678810Y-43486429D01*
X61488333Y-43486429D01*
X61393095Y-43438810D01*
X61345476Y-43391190D01*
X61297857Y-43295952D01*
X60821667Y-43867381D02*
X60631191Y-43867381D01*
X60535952Y-43819762D01*
X60488333Y-43772143D01*
X60393095Y-43629286D01*
X60345476Y-43438810D01*
X60345476Y-43057857D01*
X60393095Y-42962619D01*
X60440714Y-42915000D01*
X60535952Y-42867381D01*
X60726429Y-42867381D01*
X60821667Y-42915000D01*
X60869286Y-42962619D01*
X60916905Y-43057857D01*
X60916905Y-43295952D01*
X60869286Y-43391190D01*
X60821667Y-43438810D01*
X60726429Y-43486429D01*
X60535952Y-43486429D01*
X60440714Y-43438810D01*
X60393095Y-43391190D01*
X60345476Y-43295952D01*
X60012143Y-42867381D02*
X59393095Y-42867381D01*
X59726429Y-43248333D01*
X59583571Y-43248333D01*
X59488333Y-43295952D01*
X59440714Y-43343571D01*
X59393095Y-43438810D01*
X59393095Y-43676905D01*
X59440714Y-43772143D01*
X59488333Y-43819762D01*
X59583571Y-43867381D01*
X59869286Y-43867381D01*
X59964524Y-43819762D01*
X60012143Y-43772143D01*
X58535952Y-42867381D02*
X58726429Y-42867381D01*
X58821667Y-42915000D01*
X58869286Y-42962619D01*
X58964524Y-43105476D01*
X59012143Y-43295952D01*
X59012143Y-43676905D01*
X58964524Y-43772143D01*
X58916905Y-43819762D01*
X58821667Y-43867381D01*
X58631190Y-43867381D01*
X58535952Y-43819762D01*
X58488333Y-43772143D01*
X58440714Y-43676905D01*
X58440714Y-43438810D01*
X58488333Y-43343571D01*
X58535952Y-43295952D01*
X58631190Y-43248333D01*
X58821667Y-43248333D01*
X58916905Y-43295952D01*
X58964524Y-43343571D01*
X59012143Y-43438810D01*
X53503095Y-90317381D02*
X53503095Y-89317381D01*
X53265000Y-89317381D01*
X53122142Y-89365000D01*
X53026904Y-89460238D01*
X52979285Y-89555476D01*
X52931666Y-89745952D01*
X52931666Y-89888810D01*
X52979285Y-90079286D01*
X53026904Y-90174524D01*
X53122142Y-90269762D01*
X53265000Y-90317381D01*
X53503095Y-90317381D01*
X52074523Y-89650714D02*
X52074523Y-90317381D01*
X52312619Y-89269762D02*
X52550714Y-89984048D01*
X51931666Y-89984048D01*
X55955476Y-86217381D02*
X56526905Y-86217381D01*
X56241191Y-86217381D02*
X56241191Y-85217381D01*
X56336429Y-85360238D01*
X56431667Y-85455476D01*
X56526905Y-85503095D01*
X55526905Y-86217381D02*
X55526905Y-85217381D01*
X54955476Y-86217381D01*
X54955476Y-85217381D01*
X54050714Y-85550714D02*
X54050714Y-86217381D01*
X54288810Y-85169762D02*
X54526905Y-85884048D01*
X53907857Y-85884048D01*
X53003095Y-86217381D02*
X53574524Y-86217381D01*
X53288810Y-86217381D02*
X53288810Y-85217381D01*
X53384048Y-85360238D01*
X53479286Y-85455476D01*
X53574524Y-85503095D01*
X52145952Y-85550714D02*
X52145952Y-86217381D01*
X52384048Y-85169762D02*
X52622143Y-85884048D01*
X52003095Y-85884048D01*
X51479286Y-85645952D02*
X51574524Y-85598333D01*
X51622143Y-85550714D01*
X51669762Y-85455476D01*
X51669762Y-85407857D01*
X51622143Y-85312619D01*
X51574524Y-85265000D01*
X51479286Y-85217381D01*
X51288809Y-85217381D01*
X51193571Y-85265000D01*
X51145952Y-85312619D01*
X51098333Y-85407857D01*
X51098333Y-85455476D01*
X51145952Y-85550714D01*
X51193571Y-85598333D01*
X51288809Y-85645952D01*
X51479286Y-85645952D01*
X51574524Y-85693571D01*
X51622143Y-85741190D01*
X51669762Y-85836429D01*
X51669762Y-86026905D01*
X51622143Y-86122143D01*
X51574524Y-86169762D01*
X51479286Y-86217381D01*
X51288809Y-86217381D01*
X51193571Y-86169762D01*
X51145952Y-86122143D01*
X51098333Y-86026905D01*
X51098333Y-85836429D01*
X51145952Y-85741190D01*
X51193571Y-85693571D01*
X51288809Y-85645952D01*
X50765000Y-85217381D02*
X50526905Y-86217381D01*
X50336428Y-85503095D01*
X50145952Y-86217381D01*
X49907857Y-85217381D01*
X49003095Y-86217381D02*
X49574524Y-86217381D01*
X49288810Y-86217381D02*
X49288810Y-85217381D01*
X49384048Y-85360238D01*
X49479286Y-85455476D01*
X49574524Y-85503095D01*
X80808095Y-116892381D02*
X80808095Y-115892381D01*
X80570000Y-115892381D01*
X80427142Y-115940000D01*
X80331904Y-116035238D01*
X80284285Y-116130476D01*
X80236666Y-116320952D01*
X80236666Y-116463810D01*
X80284285Y-116654286D01*
X80331904Y-116749524D01*
X80427142Y-116844762D01*
X80570000Y-116892381D01*
X80808095Y-116892381D01*
X79331904Y-115892381D02*
X79808095Y-115892381D01*
X79855714Y-116368571D01*
X79808095Y-116320952D01*
X79712857Y-116273333D01*
X79474761Y-116273333D01*
X79379523Y-116320952D01*
X79331904Y-116368571D01*
X79284285Y-116463810D01*
X79284285Y-116701905D01*
X79331904Y-116797143D01*
X79379523Y-116844762D01*
X79474761Y-116892381D01*
X79712857Y-116892381D01*
X79808095Y-116844762D01*
X79855714Y-116797143D01*
X94055476Y-114987381D02*
X94626905Y-114987381D01*
X94341191Y-114987381D02*
X94341191Y-113987381D01*
X94436429Y-114130238D01*
X94531667Y-114225476D01*
X94626905Y-114273095D01*
X93626905Y-114987381D02*
X93626905Y-113987381D01*
X93055476Y-114987381D01*
X93055476Y-113987381D01*
X92150714Y-114320714D02*
X92150714Y-114987381D01*
X92388810Y-113939762D02*
X92626905Y-114654048D01*
X92007857Y-114654048D01*
X91103095Y-114987381D02*
X91674524Y-114987381D01*
X91388810Y-114987381D02*
X91388810Y-113987381D01*
X91484048Y-114130238D01*
X91579286Y-114225476D01*
X91674524Y-114273095D01*
X90245952Y-114320714D02*
X90245952Y-114987381D01*
X90484048Y-113939762D02*
X90722143Y-114654048D01*
X90103095Y-114654048D01*
X89579286Y-114415952D02*
X89674524Y-114368333D01*
X89722143Y-114320714D01*
X89769762Y-114225476D01*
X89769762Y-114177857D01*
X89722143Y-114082619D01*
X89674524Y-114035000D01*
X89579286Y-113987381D01*
X89388809Y-113987381D01*
X89293571Y-114035000D01*
X89245952Y-114082619D01*
X89198333Y-114177857D01*
X89198333Y-114225476D01*
X89245952Y-114320714D01*
X89293571Y-114368333D01*
X89388809Y-114415952D01*
X89579286Y-114415952D01*
X89674524Y-114463571D01*
X89722143Y-114511190D01*
X89769762Y-114606429D01*
X89769762Y-114796905D01*
X89722143Y-114892143D01*
X89674524Y-114939762D01*
X89579286Y-114987381D01*
X89388809Y-114987381D01*
X89293571Y-114939762D01*
X89245952Y-114892143D01*
X89198333Y-114796905D01*
X89198333Y-114606429D01*
X89245952Y-114511190D01*
X89293571Y-114463571D01*
X89388809Y-114415952D01*
X88865000Y-113987381D02*
X88626905Y-114987381D01*
X88436428Y-114273095D01*
X88245952Y-114987381D01*
X88007857Y-113987381D01*
X87103095Y-114987381D02*
X87674524Y-114987381D01*
X87388810Y-114987381D02*
X87388810Y-113987381D01*
X87484048Y-114130238D01*
X87579286Y-114225476D01*
X87674524Y-114273095D01*
X89698095Y-99112381D02*
X89698095Y-98112381D01*
X89460000Y-98112381D01*
X89317142Y-98160000D01*
X89221904Y-98255238D01*
X89174285Y-98350476D01*
X89126666Y-98540952D01*
X89126666Y-98683810D01*
X89174285Y-98874286D01*
X89221904Y-98969524D01*
X89317142Y-99064762D01*
X89460000Y-99112381D01*
X89698095Y-99112381D01*
X88269523Y-98112381D02*
X88460000Y-98112381D01*
X88555238Y-98160000D01*
X88602857Y-98207619D01*
X88698095Y-98350476D01*
X88745714Y-98540952D01*
X88745714Y-98921905D01*
X88698095Y-99017143D01*
X88650476Y-99064762D01*
X88555238Y-99112381D01*
X88364761Y-99112381D01*
X88269523Y-99064762D01*
X88221904Y-99017143D01*
X88174285Y-98921905D01*
X88174285Y-98683810D01*
X88221904Y-98588571D01*
X88269523Y-98540952D01*
X88364761Y-98493333D01*
X88555238Y-98493333D01*
X88650476Y-98540952D01*
X88698095Y-98588571D01*
X88745714Y-98683810D01*
X94690476Y-101017381D02*
X95261905Y-101017381D01*
X94976191Y-101017381D02*
X94976191Y-100017381D01*
X95071429Y-100160238D01*
X95166667Y-100255476D01*
X95261905Y-100303095D01*
X94261905Y-101017381D02*
X94261905Y-100017381D01*
X93690476Y-101017381D01*
X93690476Y-100017381D01*
X92785714Y-100350714D02*
X92785714Y-101017381D01*
X93023810Y-99969762D02*
X93261905Y-100684048D01*
X92642857Y-100684048D01*
X91738095Y-101017381D02*
X92309524Y-101017381D01*
X92023810Y-101017381D02*
X92023810Y-100017381D01*
X92119048Y-100160238D01*
X92214286Y-100255476D01*
X92309524Y-100303095D01*
X90880952Y-100350714D02*
X90880952Y-101017381D01*
X91119048Y-99969762D02*
X91357143Y-100684048D01*
X90738095Y-100684048D01*
X90214286Y-100445952D02*
X90309524Y-100398333D01*
X90357143Y-100350714D01*
X90404762Y-100255476D01*
X90404762Y-100207857D01*
X90357143Y-100112619D01*
X90309524Y-100065000D01*
X90214286Y-100017381D01*
X90023809Y-100017381D01*
X89928571Y-100065000D01*
X89880952Y-100112619D01*
X89833333Y-100207857D01*
X89833333Y-100255476D01*
X89880952Y-100350714D01*
X89928571Y-100398333D01*
X90023809Y-100445952D01*
X90214286Y-100445952D01*
X90309524Y-100493571D01*
X90357143Y-100541190D01*
X90404762Y-100636429D01*
X90404762Y-100826905D01*
X90357143Y-100922143D01*
X90309524Y-100969762D01*
X90214286Y-101017381D01*
X90023809Y-101017381D01*
X89928571Y-100969762D01*
X89880952Y-100922143D01*
X89833333Y-100826905D01*
X89833333Y-100636429D01*
X89880952Y-100541190D01*
X89928571Y-100493571D01*
X90023809Y-100445952D01*
X89500000Y-100017381D02*
X89261905Y-101017381D01*
X89071428Y-100303095D01*
X88880952Y-101017381D01*
X88642857Y-100017381D01*
X87738095Y-101017381D02*
X88309524Y-101017381D01*
X88023810Y-101017381D02*
X88023810Y-100017381D01*
X88119048Y-100160238D01*
X88214286Y-100255476D01*
X88309524Y-100303095D01*
X51217143Y-67537143D02*
X51264762Y-67489524D01*
X51312381Y-67346667D01*
X51312381Y-67251429D01*
X51264762Y-67108571D01*
X51169524Y-67013333D01*
X51074286Y-66965714D01*
X50883810Y-66918095D01*
X50740952Y-66918095D01*
X50550476Y-66965714D01*
X50455238Y-67013333D01*
X50360000Y-67108571D01*
X50312381Y-67251429D01*
X50312381Y-67346667D01*
X50360000Y-67489524D01*
X50407619Y-67537143D01*
X50312381Y-67870476D02*
X50312381Y-68489524D01*
X50693333Y-68156190D01*
X50693333Y-68299048D01*
X50740952Y-68394286D01*
X50788571Y-68441905D01*
X50883810Y-68489524D01*
X51121905Y-68489524D01*
X51217143Y-68441905D01*
X51264762Y-68394286D01*
X51312381Y-68299048D01*
X51312381Y-68013333D01*
X51264762Y-67918095D01*
X51217143Y-67870476D01*
X51312381Y-69441905D02*
X51312381Y-68870476D01*
X51312381Y-69156190D02*
X50312381Y-69156190D01*
X50455238Y-69060952D01*
X50550476Y-68965714D01*
X50598095Y-68870476D01*
X50312381Y-56805714D02*
X50312381Y-56900953D01*
X50360000Y-56996191D01*
X50407619Y-57043810D01*
X50502857Y-57091429D01*
X50693333Y-57139048D01*
X50931429Y-57139048D01*
X51121905Y-57091429D01*
X51217143Y-57043810D01*
X51264762Y-56996191D01*
X51312381Y-56900953D01*
X51312381Y-56805714D01*
X51264762Y-56710476D01*
X51217143Y-56662857D01*
X51121905Y-56615238D01*
X50931429Y-56567619D01*
X50693333Y-56567619D01*
X50502857Y-56615238D01*
X50407619Y-56662857D01*
X50360000Y-56710476D01*
X50312381Y-56805714D01*
X51217143Y-57567619D02*
X51264762Y-57615238D01*
X51312381Y-57567619D01*
X51264762Y-57520000D01*
X51217143Y-57567619D01*
X51312381Y-57567619D01*
X51312381Y-58567619D02*
X51312381Y-57996190D01*
X51312381Y-58281904D02*
X50312381Y-58281904D01*
X50455238Y-58186666D01*
X50550476Y-58091428D01*
X50598095Y-57996190D01*
X50645714Y-59424762D02*
X51312381Y-59424762D01*
X50645714Y-58996190D02*
X51169524Y-58996190D01*
X51264762Y-59043809D01*
X51312381Y-59139047D01*
X51312381Y-59281905D01*
X51264762Y-59377143D01*
X51217143Y-59424762D01*
X48677143Y-67537143D02*
X48724762Y-67489524D01*
X48772381Y-67346667D01*
X48772381Y-67251429D01*
X48724762Y-67108571D01*
X48629524Y-67013333D01*
X48534286Y-66965714D01*
X48343810Y-66918095D01*
X48200952Y-66918095D01*
X48010476Y-66965714D01*
X47915238Y-67013333D01*
X47820000Y-67108571D01*
X47772381Y-67251429D01*
X47772381Y-67346667D01*
X47820000Y-67489524D01*
X47867619Y-67537143D01*
X47772381Y-67870476D02*
X47772381Y-68489524D01*
X48153333Y-68156190D01*
X48153333Y-68299048D01*
X48200952Y-68394286D01*
X48248571Y-68441905D01*
X48343810Y-68489524D01*
X48581905Y-68489524D01*
X48677143Y-68441905D01*
X48724762Y-68394286D01*
X48772381Y-68299048D01*
X48772381Y-68013333D01*
X48724762Y-67918095D01*
X48677143Y-67870476D01*
X47867619Y-68870476D02*
X47820000Y-68918095D01*
X47772381Y-69013333D01*
X47772381Y-69251429D01*
X47820000Y-69346667D01*
X47867619Y-69394286D01*
X47962857Y-69441905D01*
X48058095Y-69441905D01*
X48200952Y-69394286D01*
X48772381Y-68822857D01*
X48772381Y-69441905D01*
X47772381Y-56805714D02*
X47772381Y-56900953D01*
X47820000Y-56996191D01*
X47867619Y-57043810D01*
X47962857Y-57091429D01*
X48153333Y-57139048D01*
X48391429Y-57139048D01*
X48581905Y-57091429D01*
X48677143Y-57043810D01*
X48724762Y-56996191D01*
X48772381Y-56900953D01*
X48772381Y-56805714D01*
X48724762Y-56710476D01*
X48677143Y-56662857D01*
X48581905Y-56615238D01*
X48391429Y-56567619D01*
X48153333Y-56567619D01*
X47962857Y-56615238D01*
X47867619Y-56662857D01*
X47820000Y-56710476D01*
X47772381Y-56805714D01*
X48677143Y-57567619D02*
X48724762Y-57615238D01*
X48772381Y-57567619D01*
X48724762Y-57520000D01*
X48677143Y-57567619D01*
X48772381Y-57567619D01*
X48772381Y-58567619D02*
X48772381Y-57996190D01*
X48772381Y-58281904D02*
X47772381Y-58281904D01*
X47915238Y-58186666D01*
X48010476Y-58091428D01*
X48058095Y-57996190D01*
X48105714Y-59424762D02*
X48772381Y-59424762D01*
X48105714Y-58996190D02*
X48629524Y-58996190D01*
X48724762Y-59043809D01*
X48772381Y-59139047D01*
X48772381Y-59281905D01*
X48724762Y-59377143D01*
X48677143Y-59424762D01*
X46137143Y-67537143D02*
X46184762Y-67489524D01*
X46232381Y-67346667D01*
X46232381Y-67251429D01*
X46184762Y-67108571D01*
X46089524Y-67013333D01*
X45994286Y-66965714D01*
X45803810Y-66918095D01*
X45660952Y-66918095D01*
X45470476Y-66965714D01*
X45375238Y-67013333D01*
X45280000Y-67108571D01*
X45232381Y-67251429D01*
X45232381Y-67346667D01*
X45280000Y-67489524D01*
X45327619Y-67537143D01*
X45232381Y-67870476D02*
X45232381Y-68489524D01*
X45613333Y-68156190D01*
X45613333Y-68299048D01*
X45660952Y-68394286D01*
X45708571Y-68441905D01*
X45803810Y-68489524D01*
X46041905Y-68489524D01*
X46137143Y-68441905D01*
X46184762Y-68394286D01*
X46232381Y-68299048D01*
X46232381Y-68013333D01*
X46184762Y-67918095D01*
X46137143Y-67870476D01*
X45232381Y-68822857D02*
X45232381Y-69441905D01*
X45613333Y-69108571D01*
X45613333Y-69251429D01*
X45660952Y-69346667D01*
X45708571Y-69394286D01*
X45803810Y-69441905D01*
X46041905Y-69441905D01*
X46137143Y-69394286D01*
X46184762Y-69346667D01*
X46232381Y-69251429D01*
X46232381Y-68965714D01*
X46184762Y-68870476D01*
X46137143Y-68822857D01*
X45232381Y-56805714D02*
X45232381Y-56900953D01*
X45280000Y-56996191D01*
X45327619Y-57043810D01*
X45422857Y-57091429D01*
X45613333Y-57139048D01*
X45851429Y-57139048D01*
X46041905Y-57091429D01*
X46137143Y-57043810D01*
X46184762Y-56996191D01*
X46232381Y-56900953D01*
X46232381Y-56805714D01*
X46184762Y-56710476D01*
X46137143Y-56662857D01*
X46041905Y-56615238D01*
X45851429Y-56567619D01*
X45613333Y-56567619D01*
X45422857Y-56615238D01*
X45327619Y-56662857D01*
X45280000Y-56710476D01*
X45232381Y-56805714D01*
X46137143Y-57567619D02*
X46184762Y-57615238D01*
X46232381Y-57567619D01*
X46184762Y-57520000D01*
X46137143Y-57567619D01*
X46232381Y-57567619D01*
X46232381Y-58567619D02*
X46232381Y-57996190D01*
X46232381Y-58281904D02*
X45232381Y-58281904D01*
X45375238Y-58186666D01*
X45470476Y-58091428D01*
X45518095Y-57996190D01*
X45565714Y-59424762D02*
X46232381Y-59424762D01*
X45565714Y-58996190D02*
X46089524Y-58996190D01*
X46184762Y-59043809D01*
X46232381Y-59139047D01*
X46232381Y-59281905D01*
X46184762Y-59377143D01*
X46137143Y-59424762D01*
X41342857Y-51487381D02*
X41676191Y-51011190D01*
X41914286Y-51487381D02*
X41914286Y-50487381D01*
X41533333Y-50487381D01*
X41438095Y-50535000D01*
X41390476Y-50582619D01*
X41342857Y-50677857D01*
X41342857Y-50820714D01*
X41390476Y-50915952D01*
X41438095Y-50963571D01*
X41533333Y-51011190D01*
X41914286Y-51011190D01*
X40485714Y-50820714D02*
X40485714Y-51487381D01*
X40723810Y-50439762D02*
X40961905Y-51154048D01*
X40342857Y-51154048D01*
X39533333Y-50487381D02*
X39723810Y-50487381D01*
X39819048Y-50535000D01*
X39866667Y-50582619D01*
X39961905Y-50725476D01*
X40009524Y-50915952D01*
X40009524Y-51296905D01*
X39961905Y-51392143D01*
X39914286Y-51439762D01*
X39819048Y-51487381D01*
X39628571Y-51487381D01*
X39533333Y-51439762D01*
X39485714Y-51392143D01*
X39438095Y-51296905D01*
X39438095Y-51058810D01*
X39485714Y-50963571D01*
X39533333Y-50915952D01*
X39628571Y-50868333D01*
X39819048Y-50868333D01*
X39914286Y-50915952D01*
X39961905Y-50963571D01*
X40009524Y-51058810D01*
X46359286Y-48582381D02*
X45740238Y-48582381D01*
X46073572Y-48963333D01*
X45930714Y-48963333D01*
X45835476Y-49010952D01*
X45787857Y-49058571D01*
X45740238Y-49153810D01*
X45740238Y-49391905D01*
X45787857Y-49487143D01*
X45835476Y-49534762D01*
X45930714Y-49582381D01*
X46216429Y-49582381D01*
X46311667Y-49534762D01*
X46359286Y-49487143D01*
X45406905Y-48582381D02*
X44787857Y-48582381D01*
X45121191Y-48963333D01*
X44978333Y-48963333D01*
X44883095Y-49010952D01*
X44835476Y-49058571D01*
X44787857Y-49153810D01*
X44787857Y-49391905D01*
X44835476Y-49487143D01*
X44883095Y-49534762D01*
X44978333Y-49582381D01*
X45264048Y-49582381D01*
X45359286Y-49534762D01*
X45406905Y-49487143D01*
X44359286Y-49582381D02*
X44359286Y-48582381D01*
X44264048Y-49201429D02*
X43978333Y-49582381D01*
X43978333Y-48915714D02*
X44359286Y-49296667D01*
%LPC*%
D15*
X54035000Y-30555000D03*
X55305000Y-30555000D03*
X56575000Y-30555000D03*
X57845000Y-30555000D03*
X57845000Y-35955000D03*
X56575000Y-35955000D03*
X55305000Y-35955000D03*
X54035000Y-35955000D03*
D16*
X144185000Y-56750000D03*
X141685000Y-56750000D03*
X142280000Y-54210000D03*
X139780000Y-54210000D03*
D17*
X177860000Y-35815000D03*
X177860000Y-38315000D03*
D18*
X44510000Y-30080000D03*
X49590000Y-30090160D03*
D19*
X184000000Y-38000000D03*
X184000000Y-40540000D03*
X184000000Y-35460000D03*
D20*
X38700140Y-43000000D03*
X32700660Y-43000000D03*
X35700400Y-47699000D03*
D21*
X30199260Y-91000000D03*
D22*
X38700640Y-85599960D03*
X36998840Y-88099320D03*
D21*
X41499720Y-95300220D03*
D22*
X33699380Y-95599940D03*
D21*
X30199260Y-108000000D03*
D22*
X38700640Y-102599960D03*
X36998840Y-105099320D03*
D21*
X41499720Y-112300220D03*
D22*
X33699380Y-112599940D03*
D21*
X185300740Y-109000000D03*
D22*
X176799360Y-114400040D03*
X178501160Y-111900680D03*
D21*
X174000280Y-104699780D03*
D22*
X181800620Y-104400060D03*
D23*
X144205000Y-45320000D03*
X141665000Y-45320000D03*
X139125000Y-45320000D03*
D19*
X54670000Y-61830000D03*
X54670000Y-64370000D03*
X54670000Y-66910000D03*
X54670000Y-71990000D03*
X54670000Y-74530000D03*
X54670000Y-77070000D03*
X54670000Y-79610000D03*
D24*
X134045000Y-104375000D03*
X136585000Y-104375000D03*
X139125000Y-104375000D03*
X141665000Y-104375000D03*
X141665000Y-96755000D03*
X139125000Y-96755000D03*
X136585000Y-96755000D03*
X134045000Y-96755000D03*
D25*
X129610160Y-73816260D03*
D26*
X129610160Y-76465480D03*
X137209840Y-76465480D03*
X137209840Y-73864520D03*
D25*
X129610160Y-69371260D03*
D26*
X129610160Y-72020480D03*
X137209840Y-72020480D03*
X137209840Y-69419520D03*
D27*
X92452500Y-113051640D03*
X91500000Y-110938360D03*
X90547500Y-113051640D03*
X90547500Y-102048360D03*
X91500000Y-104161640D03*
X92452500Y-102048360D03*
D24*
X163255000Y-51670000D03*
X160715000Y-51670000D03*
X158175000Y-51670000D03*
X155635000Y-51670000D03*
X153095000Y-51670000D03*
X150555000Y-51670000D03*
X148015000Y-51670000D03*
X145475000Y-51670000D03*
X142935000Y-51670000D03*
X140395000Y-51670000D03*
X137855000Y-51670000D03*
X135315000Y-51670000D03*
X132775000Y-51670000D03*
X130235000Y-51670000D03*
X130235000Y-59290000D03*
X132775000Y-59290000D03*
X135315000Y-59290000D03*
X137855000Y-59290000D03*
X140395000Y-59290000D03*
X142935000Y-59290000D03*
X145475000Y-59290000D03*
X148015000Y-59290000D03*
X150555000Y-59290000D03*
X153095000Y-59290000D03*
X155635000Y-59290000D03*
X158175000Y-59290000D03*
X160715000Y-59290000D03*
X163255000Y-59290000D03*
D28*
X172780000Y-96755000D03*
X175320000Y-96755000D03*
X181035000Y-96755000D03*
X183575000Y-96755000D03*
D29*
X175320000Y-49130000D03*
X175320000Y-51670000D03*
X175320000Y-54210000D03*
X175320000Y-56750000D03*
D28*
X142300000Y-73895000D03*
X144840000Y-73895000D03*
X147380000Y-73895000D03*
X155000000Y-73895000D03*
X157540000Y-73895000D03*
X160080000Y-73895000D03*
D30*
X76815000Y-42145000D03*
X79515000Y-42145000D03*
X71895000Y-42145000D03*
X69195000Y-42145000D03*
D31*
X54670000Y-41430000D03*
X54670000Y-44130000D03*
D30*
X76815000Y-46590000D03*
X79515000Y-46590000D03*
X71895000Y-46590000D03*
X69195000Y-46590000D03*
X43795000Y-47225000D03*
X46495000Y-47225000D03*
D31*
X97850000Y-95405000D03*
X97850000Y-98105000D03*
D30*
X77610000Y-114535000D03*
X74910000Y-114535000D03*
X77610000Y-100565000D03*
X74910000Y-100565000D03*
X91580000Y-115805000D03*
X88880000Y-115805000D03*
X85865000Y-98025000D03*
X83165000Y-98025000D03*
X174605000Y-60560000D03*
X177305000Y-60560000D03*
X160160000Y-33255000D03*
X157460000Y-33255000D03*
X174605000Y-63100000D03*
X177305000Y-63100000D03*
X166510000Y-31985000D03*
X163810000Y-31985000D03*
X174605000Y-65640000D03*
X177305000Y-65640000D03*
X172860000Y-30715000D03*
X170160000Y-30715000D03*
D31*
X166430000Y-52225000D03*
X166430000Y-54925000D03*
X170240000Y-54130000D03*
X170240000Y-56830000D03*
X121980000Y-72070000D03*
X121980000Y-69370000D03*
X124520000Y-72070000D03*
X124520000Y-69370000D03*
D30*
X151110000Y-34525000D03*
X153810000Y-34525000D03*
X147460000Y-70720000D03*
X144760000Y-70720000D03*
X160160000Y-70720000D03*
X157460000Y-70720000D03*
D32*
X64355000Y-45320000D03*
X64355000Y-46590000D03*
X64355000Y-47860000D03*
X64355000Y-49130000D03*
X58955000Y-49130000D03*
X58955000Y-47860000D03*
X58955000Y-46590000D03*
X58955000Y-45320000D03*
D24*
X119440000Y-104375000D03*
X121980000Y-104375000D03*
X124520000Y-104375000D03*
X127060000Y-104375000D03*
X127060000Y-96755000D03*
X124520000Y-96755000D03*
X121980000Y-96755000D03*
X119440000Y-96755000D03*
D33*
X51130000Y-87865000D03*
X54400000Y-87865000D03*
X84880000Y-114535000D03*
X81610000Y-114535000D03*
X86150000Y-100565000D03*
X82880000Y-100565000D03*
D24*
X79435000Y-111360000D03*
X81975000Y-111360000D03*
X84515000Y-111360000D03*
X87055000Y-111360000D03*
X87055000Y-103740000D03*
X84515000Y-103740000D03*
X81975000Y-103740000D03*
X79435000Y-103740000D03*
D34*
X56575000Y-110090000D03*
X56575000Y-105010000D03*
X56575000Y-99930000D03*
X48955000Y-110090000D03*
X48955000Y-105010000D03*
X48955000Y-99930000D03*
X56575000Y-92310000D03*
X48955000Y-92310000D03*
D35*
X33000000Y-120000000D03*
X182000000Y-120000000D03*
X182000000Y-30000000D03*
X33000000Y-30000000D03*
D36*
X60385000Y-38335000D03*
D37*
X67885000Y-38335000D03*
D38*
X171500000Y-68500000D03*
X171500000Y-81500000D03*
D39*
X178000000Y-77540000D03*
X178000000Y-75000000D03*
X178000000Y-72460000D03*
D40*
X174900000Y-79000000D03*
X174900000Y-77000000D03*
X174900000Y-75000000D03*
X174900000Y-73000000D03*
X174900000Y-71000000D03*
D41*
X48320000Y-38258800D03*
X48320000Y-42221200D03*
D17*
X50860000Y-61850000D03*
X50860000Y-64350000D03*
X48320000Y-61850000D03*
X48320000Y-64350000D03*
D42*
X35000000Y-71500000D03*
X35000000Y-78500000D03*
D43*
X32500000Y-72750000D03*
X32500000Y-77250000D03*
D44*
X131500000Y-118500000D03*
X131500000Y-31500000D03*
X83500000Y-31500000D03*
X83500000Y-118500000D03*
D17*
X45780000Y-61850000D03*
X45780000Y-64350000D03*
D45*
X76260000Y-30875000D03*
X76260000Y-50875000D03*
D46*
X108897000Y-72714000D03*
X108897000Y-77286000D03*
X106103000Y-72714000D03*
X106103000Y-77286000D03*
D47*
X107500000Y-75000000D03*
D30*
X43795000Y-51035000D03*
X46495000Y-51035000D03*
D23*
X38540000Y-63540000D03*
X36000000Y-61000000D03*
X38540000Y-58460000D03*
X36000000Y-63540000D03*
X36000000Y-58460000D03*
X38540000Y-61000000D03*
D43*
X112455000Y-47225000D03*
X106105000Y-47225000D03*
D48*
X104200000Y-66910000D03*
X101660000Y-55480000D03*
X163255000Y-40875000D03*
X101025000Y-56750000D03*
X101025000Y-70085000D03*
X101660000Y-102470000D03*
X102930000Y-70085000D03*
X102930000Y-101200000D03*
X102295000Y-58020000D03*
X100390000Y-101200000D03*
X101025000Y-68180000D03*
X99755000Y-54210000D03*
X161985000Y-113265000D03*
X148015000Y-113265000D03*
X127695000Y-113265000D03*
X139125000Y-90405000D03*
X161985000Y-92310000D03*
X127695000Y-87865000D03*
X165795000Y-45955000D03*
X66735000Y-52940000D03*
X74990000Y-112630000D03*
X74990000Y-102470000D03*
X170875000Y-44685000D03*
X157540000Y-115170000D03*
X114360000Y-100565000D03*
X114360000Y-105645000D03*
X54670000Y-46590000D03*
X98485000Y-60560000D03*
X84515000Y-50400000D03*
X107375000Y-65640000D03*
X99755000Y-30080000D03*
X107375000Y-50400000D03*
X107375000Y-63100000D03*
X98485000Y-103740000D03*
X107375000Y-60560000D03*
X62290000Y-51035000D03*
X132775000Y-41510000D03*
X151825000Y-40875000D03*
X151825000Y-47225000D03*
X137855000Y-55480000D03*
X148015000Y-33890000D03*
D43*
X90865000Y-42145000D03*
D48*
X109915000Y-118345000D03*
X106105000Y-84690000D03*
X102295000Y-77070000D03*
X95945000Y-77070000D03*
X61655000Y-89135000D03*
X94040000Y-89135000D03*
X61655000Y-63100000D03*
X94040000Y-63100000D03*
X102295000Y-89135000D03*
X175955000Y-108820000D03*
X95310000Y-95485000D03*
X137220000Y-106915000D03*
X144205000Y-106915000D03*
X142935000Y-100565000D03*
X137855000Y-92945000D03*
X178495000Y-108820000D03*
X143570000Y-81515000D03*
X129600000Y-95485000D03*
X129600000Y-106915000D03*
X129600000Y-111360000D03*
X141665000Y-119615000D03*
X116265000Y-100565000D03*
X117535000Y-118345000D03*
X59750000Y-75165000D03*
X67370000Y-75165000D03*
X63560000Y-107550000D03*
X149285000Y-100565000D03*
X91500000Y-107550000D03*
X100390000Y-113900000D03*
X100390000Y-110090000D03*
X100390000Y-105010000D03*
X100390000Y-107550000D03*
X103565000Y-83420000D03*
X162620000Y-99295000D03*
X144840000Y-99295000D03*
X114360000Y-120250000D03*
X111185000Y-100565000D03*
X103565000Y-85325000D03*
X167065000Y-102470000D03*
X167065000Y-89770000D03*
X153095000Y-92945000D03*
X153095000Y-81515000D03*
X153095000Y-89770000D03*
X167065000Y-111995000D03*
X153095000Y-111995000D03*
X153095000Y-102470000D03*
X108645000Y-103105000D03*
X105470000Y-116440000D03*
X97850000Y-102470000D03*
X167700000Y-45955000D03*
X165795000Y-35160000D03*
X181035000Y-45320000D03*
X172145000Y-34525000D03*
X181035000Y-43415000D03*
X174685000Y-34525000D03*
X156905000Y-35160000D03*
X57845000Y-60560000D03*
X157540000Y-94215000D03*
X72450000Y-52305000D03*
X56575000Y-52940000D03*
M02*
