M48
;DRILL file {KiCad 4.0.0-rc1-stable} date 2015/11/17 23:35:30
;FORMAT={3:3/ absolute / metric / suppress trailing zeros}
FMAT,2
METRIC,LZ
T1C0.600
T2C0.635
T3C0.762
T4C0.800
T5C0.996
T6C1.000
T7C1.001
T8C1.016
T9C1.100
T10C1.199
T11C1.300
T12C1.801
T13C2.200
T14C3.300
%
G90
G05
M71
T1
X139125Y-04532
X141665Y-04532
X144205Y-04532
T2
X05467Y-04659
X056575Y-05294
X057845Y-06056
X05975Y-075165
X061655Y-0631
X061655Y-089135
X06229Y-051035
X06356Y-10755
X066735Y-05294
X06737Y-075165
X07245Y-052305
X07499Y-10247
X07499Y-11263
X084515Y-0504
X090865Y-042145
X0915Y-10755
X09404Y-0631
X09404Y-089135
X09531Y-095485
X095945Y-07707
X09785Y-10247
X098485Y-06056
X098485Y-10374
X099755Y-03008
X099755Y-05421
X10039Y-1012
X10039Y-10501
X10039Y-10755
X10039Y-11009
X10039Y-1139
X101025Y-05675
X101025Y-06818
X101025Y-070085
X10166Y-05548
X10166Y-10247
X102295Y-05802
X102295Y-07707
X102295Y-089135
X10293Y-070085
X10293Y-1012
X103565Y-08342
X103565Y-085325
X1042Y-06691
X10547Y-11644
X106105Y-047225
X106105Y-08469
X107375Y-0504
X107375Y-06056
X107375Y-0631
X107375Y-06564
X108645Y-103105
X109915Y-118345
X111185Y-100565
X112455Y-047225
X11436Y-100565
X11436Y-105645
X11436Y-12025
X116265Y-100565
X117535Y-118345
X127695Y-087865
X127695Y-113265
X1296Y-095485
X1296Y-106915
X1296Y-11136
X132775Y-04151
X13722Y-106915
X137855Y-05548
X137855Y-092945
X139125Y-090405
X141665Y-119615
X142935Y-100565
X14357Y-081515
X144205Y-106915
X14484Y-099295
X148015Y-03389
X148015Y-113265
X149285Y-100565
X151825Y-040875
X151825Y-047225
X153095Y-081515
X153095Y-08977
X153095Y-092945
X153095Y-10247
X153095Y-111995
X156905Y-03516
X15754Y-094215
X15754Y-11517
X161985Y-09231
X161985Y-113265
X16262Y-099295
X163255Y-040875
X165795Y-03516
X165795Y-045955
X167065Y-08977
X167065Y-10247
X167065Y-111995
X1677Y-045955
X170875Y-044685
X172145Y-034525
X174685Y-034525
X175955Y-10882
X178495Y-10882
X181035Y-043415
X181035Y-04532
T3
X05467Y-06183
X05467Y-06437
X05467Y-06691
X05467Y-07199
X05467Y-07453
X05467Y-07707
X05467Y-07961
X106103Y-072714
X106103Y-077286
X108897Y-072714
X108897Y-077286
T4
X060385Y-038335
X067885Y-038335
X079435Y-10374
X079435Y-11136
X081975Y-10374
X081975Y-11136
X084515Y-10374
X084515Y-11136
X087055Y-10374
X087055Y-11136
X11944Y-096755
X11944Y-104375
X12198Y-096755
X12198Y-104375
X12452Y-096755
X12452Y-104375
X12706Y-096755
X12706Y-104375
X130235Y-05167
X130235Y-05929
X132775Y-05167
X132775Y-05929
X134045Y-096755
X134045Y-104375
X135315Y-05167
X135315Y-05929
X136585Y-096755
X136585Y-104375
X137855Y-05167
X137855Y-05929
X139125Y-096755
X139125Y-104375
X140395Y-05167
X140395Y-05929
X141665Y-096755
X141665Y-104375
X142935Y-05167
X142935Y-05929
X145475Y-05167
X145475Y-05929
X148015Y-05167
X148015Y-05929
X150555Y-05167
X150555Y-05929
X153095Y-05167
X153095Y-05929
X155635Y-05167
X155635Y-05929
X158175Y-05167
X158175Y-05929
X160715Y-05167
X160715Y-05929
X163255Y-05167
X163255Y-05929
T5
X048955Y-09231
X048955Y-09993
X048955Y-10501
X048955Y-11009
X056575Y-09231
X056575Y-09993
X056575Y-10501
X056575Y-11009
T6
X0325Y-07275
X0325Y-07725
T7
X04451Y-03008
X04959Y-03009
X07626Y-030875
X07626Y-050875
T8
X184Y-03546
X184Y-038
X184Y-04054
T9
X036Y-05846
X036Y-061
X036Y-06354
X03854Y-05846
X03854Y-061
X03854Y-06354
X1749Y-071
X1749Y-073
X1749Y-075
X1749Y-077
X1749Y-079
X178Y-07246
X178Y-075
X178Y-07754
T10
X1423Y-073895
X14484Y-073895
X14738Y-073895
X155Y-073895
X15754Y-073895
X16008Y-073895
X17278Y-096755
X17532Y-04913
X17532Y-05167
X17532Y-05421
X17532Y-05675
X17532Y-096755
X181035Y-096755
X183575Y-096755
T11
X035Y-0715
X035Y-0785
T12
X04832Y-038259
X04832Y-042221
T13
X1715Y-0685
X1715Y-0815
T14
X1075Y-075
T7
X030199Y-0906G85X030199Y-0914
G05
X030199Y-1076G85X030199Y-1084
G05
X032701Y-042001G85X032701Y-043999
G05
X034099Y-0956G85X033299Y-0956
G05
X034099Y-1126G85X033299Y-1126
G05
X034701Y-047699G85X0367Y-047699
G05
X037399Y-088099G85X036599Y-088099
G05
X037399Y-105099G85X036599Y-105099
G05
X0387Y-042001G85X0387Y-043999
G05
X039101Y-0856G85X038301Y-0856
G05
X039101Y-1026G85X038301Y-1026
G05
X0415Y-0949G85X0415Y-0957
G05
X0415Y-1119G85X0415Y-1127
G05
X174Y-1051G85X174Y-1043
G05
X176399Y-1144G85X177199Y-1144
G05
X178101Y-111901G85X178901Y-111901
G05
X181401Y-1044G85X182201Y-1044
G05
X185301Y-1094G85X185301Y-1086
G05
T0
M30
